<?xml version="1.0" encoding="UTF-8" standalone="no"?>
<!-- Created with Inkscape (http://www.inkscape.org/) -->

<svg
   xmlns:dc="http://purl.org/dc/elements/1.1/"
   xmlns:cc="http://creativecommons.org/ns#"
   xmlns:rdf="http://www.w3.org/1999/02/22-rdf-syntax-ns#"
   xmlns:svg="http://www.w3.org/2000/svg"
   xmlns="http://www.w3.org/2000/svg"
   xmlns:sodipodi="http://sodipodi.sourceforge.net/DTD/sodipodi-0.dtd"
   xmlns:inkscape="http://www.inkscape.org/namespaces/inkscape"
   version="1.1"
   id="svg3802"
   width="1200"
   height="1200"
   viewBox="0 0 1200 1200"
   sodipodi:docname="tree-of-life.svg"
   inkscape:version="0.92.5 (2060ec1f9f, 2020-04-08)"
   inkscape:export-filename="/home/mitch/projects-r/hugo-apero/static/img/tree-of-life.png"
   inkscape:export-xdpi="96"
   inkscape:export-ydpi="96">
  <metadata
     id="metadata3808">
    <rdf:RDF>
      <cc:Work
         rdf:about="">
        <dc:format>image/svg+xml</dc:format>
        <dc:type
           rdf:resource="http://purl.org/dc/dcmitype/StillImage" />
        <dc:title></dc:title>
      </cc:Work>
    </rdf:RDF>
  </metadata>
  <defs
     id="defs3806" />
  <sodipodi:namedview
     pagecolor="#ffffff"
     bordercolor="#666666"
     borderopacity="1"
     objecttolerance="10"
     gridtolerance="10"
     guidetolerance="10"
     inkscape:pageopacity="0"
     inkscape:pageshadow="2"
     inkscape:window-width="1848"
     inkscape:window-height="1016"
     id="namedview3804"
     showgrid="false"
     inkscape:zoom="0.71166667"
     inkscape:cx="353.39578"
     inkscape:cy="600"
     inkscape:window-x="72"
     inkscape:window-y="27"
     inkscape:window-maximized="1"
     inkscape:current-layer="svg3802" />
  <path
     style="fill:#000000"
     d="m 570.16393,1021.4604 c -87.18631,-6.042 -165.02706,-32.22393 -236.99675,-79.71423 -54.56986,-36.0088 -103.51538,-85.4734 -138.69012,-140.16113 -11.01864,-17.13117 -22.33685,-36.96366 -27.74637,-48.619 -1.27634,-2.75 -3.52612,-7.475 -4.99951,-10.5 -2.55238,-5.24026 -6.9397,-15.41197 -12.29277,-28.5 -7.4903,-18.31346 -17.94588,-53.86371 -22.64626,-77 -7.37442,-36.29852 -9.07048,-54.46713 -9.10172,-97.5 -0.0293,-40.31394 0.66987,-49.77295 6.02387,-81.5 24.76708,-146.76626 114.98719,-272.73631 246.94963,-344.80403 46.25174,-25.259141 103.09271,-44.374691 155.5,-52.294491 42.8503,-6.47554 92.01809,-7.12795 135,-1.7913 81.08779,10.06788 161.10565,42.135211 226.5,90.770361 7.96469,5.92352 20.47049,15.7629 23.66519,18.61946 0.9226,0.825 4.6047,3.975 8.1824,7 18.4103,15.5664 50.0221,49.73635 67.2521,72.69437 46.81078,62.37318 77.97638,134.78556 90.29838,209.80563 5.3076,32.3142 5.6045,36.69711 5.554,82 -0.052,46.64804 -0.3348,50.32475 -6.5409,85 -21.4919,120.08209 -87.81058,227.21652 -186.41117,301.13753 -70.45565,52.8207 -151.61771,84.43883 -241,93.88583 -17.16661,1.8143 -61.5457,2.646 -78.5,1.471 z m 31.41821,-7.6013 c 2.07319,-0.7955 2.04059,-5.003 -0.045,-5.8033 -3.21136,-1.2323 -5.63552,2.748 -3.17325,5.2103 1.40234,1.4023 1.20426,1.3658 3.21821,0.593 z m 22.58179,-15.37943 c 9.075,-0.5327 23.17906,-1.7271 31.34236,-2.6542 l 14.84237,-1.6858 -0.59279,-2.9639 c -1.62502,-8.1251 -10.5559,-21.7944 -19.56751,-29.9495 -8.78234,-7.9476 -17.47792,-12.7602 -23.05533,-12.7602 -5.10628,0 -12.36384,3.1735 -17.9691,7.8575 l -3.5,2.9247 -0.0734,16.3589 c -0.0404,8.9974 -0.42796,18.0464 -0.86129,20.1089 -0.68783,3.2738 -0.55153,3.7489 1.07342,3.7411 1.02371,0 9.28629,-0.4448 18.36129,-0.9775 z m -43.07185,-5.5511 c 2.19989,-5.8797 2.73773,-12.9329 1.06503,-13.9667 -0.55376,-0.3423 -2.326,0.3171 -3.93832,1.4651 -5.10947,3.6383 -19.28145,10.2175 -27.05486,12.56 -6.13537,1.8489 -7.04512,2.3699 -5,2.8632 3.52802,0.8511 19.33375,2.3211 26.67815,2.4812 l 6.17815,0.1347 z m -94.26676,-13.8215 c 19.09013,-8.1805 31.66728,-15.517 48.65705,-28.3827 10.34226,-7.8317 13.89896,-12.1304 13.45216,-16.2583 -0.60097,-5.5522 -13.63917,-3.3879 -34.7706,5.772 -42.81284,18.5581 -41.40283,18.1114 -67,21.2253 -9.625,1.1708 -18.38143,2.4752 -19.45874,2.8985 -2.31766,0.9107 5.52601,4.1009 28.47175,11.5799 7.96784,2.5971 15.61199,5.0919 16.98699,5.5442 4.13247,1.3591 5.48988,1.1227 13.66139,-2.3789 z m 256.51914,-2.7484 c 10.07571,-3.3591 19.40645,-6.6732 20.73497,-7.3647 2.36184,-1.2293 2.3063,-1.2928 -2.5,-2.8575 -2.70352,-0.8801 -9.1905,-2.3027 -14.4155,-3.1614 -18.58594,-3.0541 -34.85665,-7.239 -37.45,-9.6323 -0.5225,-0.4822 -1.51977,-0.8767 -2.21617,-0.8767 -0.76075,0 -0.0638,1.7815 1.74595,4.4631 3.26414,4.8365 11.92022,22.5569 11.92022,24.4026 0,2.0307 3.5799,1.228 22.18053,-4.9731 z m 56.44863,-22.5654 c 5.15471,-2.3468 30.09371,-15.6992 39.11452,-20.942 1.78402,-1.0369 3.24652,-2.4154 3.25,-3.0634 0.003,-0.648 -2.58118,-2.1636 -5.74368,-3.368 -4.40683,-1.6784 -7.96915,-2.1999 -15.25,-2.2326 -10.13702,-0.046 -12.3573,0.5528 -32.13503,8.6616 -4.74927,1.9472 -11.94927,4.4357 -16,5.5301 -5.8484,1.5801 -6.89188,2.1294 -5.06747,2.6675 5.58693,1.6479 16.07711,7.4846 20.2025,11.2405 2.475,2.2534 4.78312,4.1155 5.12916,4.1381 0.34603,0.023 3.27103,-1.1618 6.5,-2.6318 z m -411.48963,-14.8773 c 4.59826,-0.8525 14.43547,-3.1165 21.86047,-5.0311 19.44657,-5.0145 56.27141,-17.6282 54.89154,-18.8022 -0.21535,-0.1832 -5.34154,0.025 -11.39154,0.4619 -6.05,0.4372 -17.525,0.8327 -25.5,0.8788 -39.47404,0.2283 -61.22288,3.9945 -68.30788,11.8289 -1.77597,1.9639 -1.66126,2.0887 6.5,7.0753 4.56934,2.7919 9.49567,5.0902 10.94741,5.1073 1.45174,0.017 6.40174,-0.6663 11,-1.5189 z m -46.62917,-28.8307 c 3.0071,-2.9595 7.09416,-6.1527 9.08237,-7.0962 6.31711,-2.9977 2.90898,-3.8647 -15.51513,-3.9471 -11.35624,-0.051 -17.34793,0.2972 -18.10334,1.0515 -0.83831,0.8371 1.38605,2.9618 8.63664,8.25 5.37116,3.9174 9.91566,7.1226 10.09888,7.1226 0.18322,0 2.79348,-2.4214 5.80058,-5.3808 z m 542.77066,-9.034 c 1.64916,-1.2511 1.5208,-1.5046 -1.73389,-3.4249 -13.51222,-7.9724 -27.39884,-11.1684 -48.42812,-11.1456 -16.14178,0.017 -21.01732,1.043 -38.11901,8.0175 l -12.5,5.0979 7.5,-0.5442 c 4.125,-0.2992 11.775,-0.9913 17,-1.5379 19.71992,-2.063 50.29705,-0.4998 66,3.374 7.14778,1.7633 8.15085,1.7792 10.28102,0.1632 z m -415.78102,-12.4792 c 2.8664,-0.6281 2.68826,-0.7877 -4,-3.5831 -6.10277,-2.5506 -8.21767,-2.9216 -16.5,-2.894 -9.64965,0.032 -15.30784,1.0782 -22.49606,4.1586 l -3.99606,1.7125 4.99606,0.5929 c 6.85022,0.8129 38.30118,0.8227 41.99606,0.013 z m 456.55259,-24.054 c 26.8798,-26.87891 46.4406,-51.33821 65.7586,-82.22571 8.7682,-14.01948 24.18878,-42.39265 24.18878,-44.50617 0,-0.55197 -1.9125,-1.56822 -4.25,-2.25834 -11.78448,-3.47927 -25.79288,-14.26614 -30.44248,-23.4417 -2.7955,-5.51662 -3.3635,-12.00721 -1.9035,-21.75264 0.7814,-5.21618 0.6053,-6.10319 -2.3823,-12 -1.7744,-3.50211 -5.3062,-9.29247 -7.8485,-12.86747 -6.0943,-8.5698 -22.1876,-25.0028 -24.4845,-25.00123 -1.5808,10e-4 -1.7326,0.60548 -1.1927,4.75123 1.658,12.73304 3.7816,18.65567 8.5158,23.75 9.1029,9.79527 9.8212,19.01878 3.0374,39 -6.2399,18.37901 -7.9528,19.28167 -14.2321,7.5 -12.773,-23.96575 -14.5295,-32.64053 -8.8107,-43.51207 5.3295,-10.13154 5.0191,-15.28052 -1.7582,-29.17252 -8.4274,-17.2743 -24.1296,-28.39374 -46.49572,-32.9257 -7.63654,-1.54736 -23.8975,-1.57801 -25.42759,-0.0479 -0.75053,0.75054 4.2217,5.12293 9.37843,8.24704 2.91093,1.76354 7.06174,2.95576 13.5,3.87759 5.11318,0.73209 10.19668,1.67641 11.29668,2.09848 6.7492,2.58967 14.179,11.83189 21.9395,27.29152 4.7302,9.42296 4.3456,10.58669 -3.2017,9.687 -15.2825,-1.82176 -27.7577,-6.59221 -34.5876,-13.22608 -2.01974,-1.96177 -5.30389,-6.67185 -7.2981,-10.46685 -4.38148,-8.33797 -12.02546,-15.65339 -18.9186,-18.10543 -4.87852,-1.73539 -10.54878,-2.29643 -11.68869,-1.15652 -0.66462,0.66462 3.28589,11.67054 6.55907,18.27324 3.05697,6.16654 17.28655,19.31897 25.02026,23.12626 3.49047,1.71836 9.22414,3.52369 12.79897,4.02995 13.88639,1.96655 18.44299,5.77772 30.15879,25.22474 10.5745,17.55264 8.9988,19.646 -9.5494,12.68624 -21.84635,-8.19732 -25.42001,-11.16651 -29.23513,-24.29006 -1.35759,-4.66994 -2.3591,-6.13284 -5.8186,-8.49925 -5.51946,-3.77548 -10.737,-6.41474 -11.39011,-5.76163 -1.03364,1.03364 23.02278,47.50093 26.38204,50.95946 1.84126,1.89567 6.37689,4.6978 10.0874,6.23204 10.7331,4.43799 15.8418,10.23853 18.6867,21.21755 1.7749,6.84936 2.0566,22.73148 0.5094,28.71293 -2.1385,8.26691 -4.1033,12.50031 -5.7869,12.4685 -2.4085,-0.0455 -31.44851,-28.7838 -33.4673,-33.11963 -2.13082,-4.57643 -2.16688,-10.91367 -0.10169,-17.86792 0.87906,-2.96013 1.36843,-6.7543 1.08748,-8.4315 -0.6188,-3.69408 -30.32175,-54.04948 -31.88195,-54.04948 -4.07723,0 -5.58595,20.6343 -2.32148,31.75 1.92312,6.54833 1.93002,6.95167 0.23094,13.5 -0.96327,3.7125 -2.56771,7.875 -3.56541,9.25 -3.03768,4.18642 -20.28842,18.11949 -22.02245,17.78707 -2.25542,-0.43236 -5.11939,-16.21667 -5.40468,-29.78707 -0.21066,-10.02028 -0.0901,-10.70559 2.63955,-15 1.57317,-2.475 4.86777,-6.075 7.32134,-8 6.81077,-5.34354 8.23811,-7.91245 9.35779,-16.84207 1.00159,-7.98789 0.27215,-19.07626 -2.14823,-32.65561 -1.58511,-8.89311 -2.29016,-9.60079 -4.75381,-4.77162 -3.15214,6.17869 -3.58407,11.04612 -1.60588,18.09635 3.33357,11.88074 1.65659,15.29098 -13.03151,26.50034 -4.4,3.3579 -8.9,6.94611 -10,7.9738 -3.58423,3.34861 -7.3389,4.85539 -9.37868,3.76374 -3.20745,-1.71658 -5.52308,-8.0398 -5.93666,-16.21102 -0.77998,-15.41066 4.2906,-24.24565 17.58866,-30.64648 4.004,-1.92727 8.61801,-5.02803 10.25334,-6.89058 13.29493,-15.14208 -21.20124,-32.99947 -52.593,-27.22545 -9.52029,1.75111 -42.89585,15.74648 -54.76801,22.96586 l -2.83434,1.72354 6.83434,2.24739 c 3.75889,1.23606 8.6012,3.135 10.76069,4.21988 2.88244,1.44807 5.22454,1.84776 8.80918,1.50332 4.3223,-0.41532 5.42136,-1.04876 9.57366,-5.51781 5.78048,-6.22142 10.30517,-7.6727 21.73907,-6.97276 12.14863,0.7437 20.99475,6.28506 20.24932,12.68452 -0.25328,2.17446 -1.26495,2.88011 -6.79757,4.74144 -9.66881,3.25285 -17.43977,3.8105 -26.76607,1.92075 -8.50977,-1.7243 -14.24049,-2.06981 -14.22328,-0.85753 0.006,0.4125 1.5635,2.25873 3.46143,4.10273 1.89793,1.844 5.5334,7.60566 8.07883,12.80369 2.66316,5.43843 6.43842,11.31369 8.89212,13.83835 7.87215,8.09985 8.85004,21.48692 2.45284,33.57878 -4.2956,8.11946 -6.03629,8.54046 -9.26277,2.2403 -1.35591,-2.64762 -4.31016,-7.26714 -6.56498,-10.26561 -6.37843,-8.48203 -7.52043,-16.40531 -3.48838,-24.20244 1.40634,-2.71957 1.36899,-3.18852 -0.48944,-6.14503 -3.2883,-5.23122 -6.24174,-8.14001 -12.77591,-12.58278 -5.09096,-3.46149 -16.75046,-9.11799 -18.79452,-9.11799 -1.56383,0 -0.25062,11.66967 1.98013,17.59623 3.02626,8.04004 3.12346,12.17458 0.48688,20.71083 -2.14185,6.93449 -11.13754,19.90569 -14.216,20.49855 -1.76589,0.34008 -3.7118,-4.92524 -7.2615,-19.64845 -1.49685,-6.20857 -1.57902,-7.98136 -0.5319,-11.47633 1.22189,-4.0783 2.44688,-5.53618 8.70839,-10.36398 1.75223,-1.35102 3.45009,-3.6625 3.77303,-5.13662 0.72393,-3.30457 -1.08528,-13.33129 -2.57119,-14.24963 -0.59889,-0.37013 -4.49052,-0.98121 -8.64807,-1.35796 l -7.55918,-0.685 -5.59023,3.80618 c -18.88593,12.85873 -30.67664,33.95088 -28.65926,51.26793 1.32417,11.36655 3.8711,17.38737 17.99455,42.53825 19.01556,33.86268 21.54425,43.10552 18.08038,66.08713 -2.00403,13.29603 -1.88994,20.59137 0.4661,29.80339 3.6877,14.41881 12.45585,27.61471 23.96001,36.05961 6.82892,5.0128 15.85635,6.8201 34.06799,6.8201 16.27206,0 22.20453,-1.0306 42.12863,-7.3187 20.01771,-6.3176 28.76655,-7.9802 45.37137,-8.6222 17.92855,-0.6932 33.19492,1.1884 46.98497,5.7911 8.58768,2.8663 21.33782,9.1673 26.38772,13.0405 2.3534,1.8051 2.4142,1.7859 7.5,-2.3684 2.82,-2.3036 12.576,-11.6368 21.6799,-20.7405 z m -615.31111,18.9527 c 11.25313,-2.9814 27.09942,-4.3369 42.75852,-3.6578 12.19452,0.5288 32.87498,2.6727 40.5,4.1984 1.8579,0.3718 3.91263,-0.5719 8,-3.674 7.03547,-5.3398 19.78632,-11.3636 28.60758,-13.5151 4.36863,-1.0655 11.10336,-1.6904 18.39242,-1.7066 12.19098,-0.027 18.06308,1.1318 38,7.4996 6.73517,2.1512 12.32497,3.1914 19.20665,3.5741 9.51525,0.5292 9.85048,0.4714 17,-2.932 7.07111,-3.366 16.89216,-10.1928 24.10231,-16.7539 8.20569,-7.46702 14.64328,-27.10291 15.42114,-47.03743 0.86778,-22.23865 -3.17668,-36.36514 -15.78392,-55.1301 -9.80515,-14.59424 -10.95079,-18.12714 -11.96899,-36.90943 -0.46332,-8.54674 -1.39006,-17.77174 -2.05941,-20.5 -3.12256,-12.72734 -11.89666,-23.97657 -23.53904,-30.17928 -7.13624,-3.80197 -14.15171,-5.76192 -24.23162,-6.7697 l -7.35288,-0.73514 0.70994,2.36183 c 1.76786,5.88129 7.03672,12.25207 13.69524,16.55945 7.16813,4.63704 9.34138,7.57852 10.37502,14.04254 0.82812,5.17878 -1.17049,14.58428 -3.55824,16.74517 -1.79163,1.6214 -2.15422,1.56437 -7.07257,-1.11254 -9.22354,-5.02008 -11.64775,-10.69533 -8.85888,-20.73929 1.44293,-5.19665 0.71806,-7.24969 -4.63707,-13.13351 -2.5029,-2.75 -5.95382,-6.9125 -7.66872,-9.25 -5.9503,-8.11058 -9.77896,-4.57886 -9.77896,9.02054 0,8.37011 0.17982,9.10664 3.4847,14.27299 5.27533,8.24667 6.761,12.37265 6.82865,18.96434 0.10408,10.14217 -2.54255,15.57832 -12.25056,25.16252 -4.64047,4.58129 -9.009,8.32961 -9.70785,8.32961 -1.66236,0 -5.66314,-7.0698 -7.92255,-14 -3.65565,-11.21283 -1.71646,-31.40154 3.82722,-39.84474 1.31999,-2.01039 2.93081,-5.19703 3.57958,-7.08142 1.54639,-4.49155 2.75908,-17.54304 1.56898,-16.88599 -0.49949,0.27577 -5.91996,3.49448 -12.04547,7.15269 -15.03512,8.9791 -20.18885,13.78381 -24.58766,22.92257 -3.90076,8.10402 -7.24264,11.44289 -15.67405,15.65991 -7.59422,3.7983 -13.76289,5.08816 -25.60099,5.35314 -9.65388,0.21609 -10.01095,0.14684 -10.31622,-2.00075 -0.51662,-3.6344 11.90578,-25.30833 18.66104,-32.55875 1.42628,-1.53084 4.62855,-3.97611 7.11614,-5.43393 4.71016,-2.76034 8.13119,-3.05432 25.53904,-2.19463 5.08184,0.25097 6.91873,-0.17536 12.0037,-2.78596 3.30203,-1.69525 7.23953,-4.3181 8.75,-5.82857 4.50951,-4.50951 3.65218,-6.30358 -4.78768,-10.0188 -9.70014,-4.27 -14.98806,-7.07274 -21.48123,-11.38562 -6.99671,-4.64735 -7.69818,-4.76618 -12.79268,-2.16716 -3.79823,1.93771 -6.31468,5.82663 -7.62206,11.77909 -1.44635,6.58515 -7.18375,9.82806 -18.57005,10.49619 l -5.5,0.32273 v -8.08084 c 0,-7.304 0.26827,-8.43228 2.79065,-11.73657 3.83778,-5.02747 5.93659,-5.93351 15.52428,-6.70176 6.58494,-0.52763 8.75864,-1.10996 10.44753,-2.79884 l 2.13258,-2.13259 -2.44752,-2.63582 c -4.54761,-4.89747 -14.20781,-11.74248 -19.84402,-14.06102 -7.34145,-3.02002 -19.59418,-3.22099 -25.75751,-0.42247 -5.40975,2.45636 -9.34599,8.88855 -9.34599,15.27226 0,3.65384 0.59303,5.1794 3.07565,7.91214 6.04711,6.65632 7.35962,13.68943 4.40895,23.62541 -1.59281,5.36357 -9.782,17.2601 -11.88131,17.2601 -1.89418,0 -5.00003,-4.80425 -8.05826,-12.46481 -2.37667,-5.95333 -2.71418,-7.98652 -2.324,-14 0.45448,-7.0044 2.1883,-11.80166 5.4409,-15.05426 2.47139,-2.47139 3.30186,-18.17386 1.00774,-19.0542 -2.24486,-0.86143 -24.76565,5.66925 -26.89576,7.79936 -1.37286,1.37286 -1.77337,3.41303 -1.77153,9.02391 0.002,6.77539 0.25726,7.6252 3.89581,12.98146 5.66296,8.33635 6.69816,13.70378 4.62841,23.99781 -1.77227,8.81448 -4.85148,15.21312 -9.90694,20.5867 -4.10194,4.36006 -9.02126,7.35089 -10.90304,6.62878 -0.82988,-0.31846 -2.9718,-3.8113 -4.75981,-7.76188 -3.84711,-8.50012 -4.98951,-19.46072 -2.97483,-28.54166 1.58633,-7.15025 2.76502,-9.37219 8.53331,-16.08609 4.36134,-5.0763 4.63419,-5.71937 4.03081,-9.5 -0.93289,-5.84527 -3.00727,-8.55512 -6.54892,-8.55512 -7.91634,0 -22.62451,8.79442 -35.1213,21 -11.58487,11.31491 -16.87588,20.60937 -16.87588,29.64506 0,8.60686 6.34256,14.35494 15.83956,14.35494 6.36687,0 9.51191,-2.34324 9.37983,-6.98853 -0.12183,-4.28499 -2.40546,-5.87711 -3.5534,-2.47739 -0.97217,2.87914 -5.0059,4.25864 -7.17898,2.45514 -2.50409,-2.07821 -1.8709,-8.3326 1.14935,-11.35286 4.7269,-4.72689 14.01056,-2.46173 17.1467,4.18369 2.11016,4.47139 1.52641,12.26026 -1.222,16.3049 -8.14741,11.98999 -30.90737,8.70877 -38.26344,-5.51632 -2.16022,-4.17739 -2.76721,-13.46584 -1.29001,-19.74021 1.62282,-6.89288 3.97931,-11.55644 10.62171,-21.02068 2.95388,-4.20875 5.37068,-8.0881 5.37068,-8.62079 0,-0.53269 -3.20715,-1.28455 -7.12701,-1.67081 -7.09886,-0.6995 -7.1405,-0.6892 -10.54283,2.60848 -4.22716,4.09712 -12.38461,16.24762 -16.5264,24.61602 -3.02429,6.11054 -3.07332,6.42722 -1.81026,11.69226 0.73604,3.06818 1.05592,7.75929 0.73869,10.83303 -1.00369,9.72479 -9.98643,28.71171 -13.56796,28.67876 -3.22764,-0.0297 -4.21029,-1.71213 -6.67509,-11.42864 -4.57386,-18.03072 -2.71882,-28.52156 5.84513,-33.05605 3.22249,-1.70626 4.25801,-3.17495 7.05058,-10 4.24744,-10.38074 6.12504,-13.97063 10.32971,-19.75 2.08969,-2.8723 2.92798,-4.74132 2.12061,-4.72804 -3.02916,0.0498 -9.67412,4.04069 -14.83517,8.90978 -3.025,2.85388 -7.34324,6.05215 -9.59609,7.10728 -5.93646,2.78034 -16.49846,3.48943 -24.39805,1.63798 -3.57177,-0.83713 -6.70389,-1.3123 -6.96026,-1.05594 -1.20127,1.20128 9.57298,35.50914 17.23452,54.87894 16.81586,42.51361 44.15047,88.75574 72.11652,122 23.66629,28.13293 52.2046,56.15633 56.04051,55.02933 1.13457,-0.3334 5.32152,-1.4695 9.30433,-2.5246 z M 1029.6982,704.96604 c 10.9157,-28.44679 19.0653,-57.703 23.8169,-85.5 3.3219,-19.43381 3.6333,-21.89327 2.833,-22.37597 -0.3763,-0.22694 -4.9592,0.42622 -10.1842,1.45146 -19.7838,3.88196 -31.3729,1.34896 -42.4585,-9.28003 -4.49178,-4.30685 -11.40508,-7.53902 -18.92668,-8.84886 -6.3556,-1.10678 -13.6288,-0.65298 -13.6024,0.84871 0.01,0.38758 1.6032,1.73539 3.5477,2.99513 1.9444,1.25975 4.9001,4.40975 6.5683,7 2.6965,4.1871 2.9744,5.31319 2.5048,10.15073 -0.8563,8.82139 -6.5155,14.2203 -13.0008,12.4029 -4.2951,-1.20363 -7.2262,-6.94659 -5.4902,-10.75684 1.4501,-3.1827 5.42,-4.45362 7.4792,-2.39442 1.6613,1.66126 0.8574,4.80719 -1.2284,4.80719 -2.1853,0 -1.6294,1.7902 0.7949,2.55965 1.622,0.5148 2.6826,0.0836 4.1002,-1.66716 2.6479,-3.26998 1.7721,-9.17646 -1.9343,-13.04511 -3.7767,-3.942 -11.5597,-8.84738 -14.0374,-8.84738 -1.1047,0 -5.5653,1.29606 -9.9125,2.88013 -4.3471,1.58408 -12.8539,4.68875 -18.9039,6.89928 -6.05,2.21053 -12.6875,4.60487 -14.75,5.32076 -2.0625,0.71588 -3.75,1.60992 -3.75,1.98675 0,0.37683 3.0888,2.52014 6.8639,4.76291 3.7751,2.24276 9.2876,6.05053 12.25,8.4617 9.9337,8.08538 10.0905,8.1258 30.3861,7.83076 15.2777,-0.22209 18.8715,-0.57607 23.7626,-2.34058 9.8565,-3.55578 21.13208,-0.95391 29.80828,6.87832 4.5269,4.08649 13.9291,21.61123 13.9291,25.96226 0,2.56796 -0.3015,2.67938 -11.6916,4.32113 -10.8948,1.57037 -16.1453,1.29396 -21.11448,-1.11159 -5.6243,-2.72267 -16.1092,-12.48635 -20.1189,-18.73499 -3.7959,-5.91536 -6.3209,-7.12106 -14.872,-7.10153 -10.3684,0.0237 -10.6987,0.80897 -3.4076,8.10008 3.4261,3.42607 11.6878,13.83955 18.3594,23.14106 13.026,18.16067 13.5435,18.60507 24.15808,20.74386 10.8614,2.18854 16.7548,10.2474 18.7386,25.62408 1.5797,12.24517 1.9322,13.80114 2.8931,12.77025 0.4586,-0.49205 3.4239,-7.64464 6.5897,-15.89464 z M 644.16393,619.63682 c 7.71495,-5.30153 13.927,-8.92955 28.5,-16.64483 15.0047,-7.94384 47.52916,-20.02023 67.5,-25.06288 3.575,-0.90268 6.63675,-1.77541 6.80389,-1.93938 0.16713,-0.16397 -0.61868,-1.81138 -1.74626,-3.66091 -2.984,-4.89454 -2.68326,-9.39099 0.86545,-12.9397 3.30481,-3.30482 7.35838,-3.81509 10.85441,-1.36638 4.17816,2.9265 1.55333,9.0664 -3.34982,7.83579 -2.84343,-0.71366 -3.16377,0.63936 -0.67767,2.86227 3.5928,3.21244 7.50617,2.58701 10.79533,-1.7253 3.7815,-4.95781 3.6016,-11.75741 -0.5333,-20.15659 -3.61286,-7.33876 -6.3919,-9.81426 -13.33106,-11.87497 -11.23244,-3.33568 -28.47075,-1.28572 -46.68097,5.55125 -13.35607,5.01449 -31.62744,10.92021 -42,13.57535 -12.08949,3.09462 -18.7996,7.36318 -22.98296,14.62032 -3.15253,5.46889 -5.55632,12.54923 -4.58892,13.51663 0.87111,0.87111 11.51848,-1.7681 17.12466,-4.24476 2.77902,-1.22771 7.86955,-4.74555 11.31228,-7.81744 3.44274,-3.07189 7.87759,-6.11927 9.85523,-6.77195 4.7179,-1.55705 19.24192,-0.67134 25.77971,1.5721 8.2545,2.83254 15.5,6.561 15.5,7.97615 0,1.3727 -14.25484,10.49214 -26.4007,16.88967 -7.81316,4.11539 -14.19727,4.74637 -21.5993,2.13478 -2.3383,-0.825 -7.35984,-1.5 -11.15897,-1.5 -11.13265,0 -19.38652,5.37339 -25.00374,16.2778 -1.71715,3.33341 -2.27345,6.52659 -2.64271,15.16917 l -0.46771,10.94697 4.88656,-3.69108 c 2.68762,-2.0301 8.71157,-6.31953 13.38657,-9.53208 z m -486.98822,7.32139 c 12.16185,-8.08518 17.32017,-9.99336 26.98822,-9.98353 9.11085,0.009 11.98666,1.00498 19.1439,6.62837 3.59855,2.82735 3.81017,2.86286 17,2.85267 13.92403,-0.0108 34.24719,-1.4647 39.27653,-2.80989 l 2.92043,-0.78112 -3.61674,-2.13393 c -4.26488,-2.51635 -7.72412,-8.69747 -7.72412,-13.80183 0,-7.26285 8.82995,-12.07203 14.66323,-7.98624 4.77832,3.34687 3.1974,10.52333 -2.31822,10.52333 -2.52533,0 -3.24889,-2.69612 -1.25788,-4.68713 1.52238,-1.52238 -0.14655,-2.24456 -2.83713,-1.22768 -1.71545,0.64833 -2.25,1.64509 -2.25,4.19549 0,5.69239 7.36759,10.71932 15.7105,10.71932 4.0942,0 33.8073,-12.07336 36.60954,-14.87559 4.38362,-4.38363 -1.22976,-6.73139 -8.6658,-3.62441 -7.37484,3.08141 -18.19717,1.37421 -25.21344,-3.97736 -4.91707,-3.75043 -4.36751,-6.31586 2.03212,-9.48617 3.88507,-1.92462 6.96583,-2.5507 14.08311,-2.86198 10.19022,-0.44569 14.65097,0.99095 16.64145,5.35959 1.75687,3.8559 5.59868,5.71838 12.86853,6.23853 6.11267,0.43736 25.72867,-1.23396 26.77608,-2.28137 2.05462,-2.05461 -11.59358,-7.95902 -27.57469,-11.92922 -23.88752,-5.93439 -51.0359,-7.73087 -61.12828,-4.04504 -5.72692,2.09153 -9.76506,5.96814 -10.73969,10.31009 -1.92737,8.58636 -2.82595,10.59945 -6.26735,14.04085 -6.3497,6.3497 -25.60741,11.15076 -28.21393,7.03389 -1.82647,-2.88484 -0.75889,-6.00858 4.9851,-14.58628 6.85862,-10.24222 10.16336,-13.00064 17.16672,-14.3288 5.59596,-1.06125 5.69608,-1.10772 11.43003,-5.30501 l 4,-2.92802 -8.5,0.55119 c -7.10244,0.46056 -27.22986,3.943 -50.5,8.7375 -8.64957,1.78212 -13.10054,4.62598 -19.50255,12.46073 -6.92905,8.47974 -13.28175,12.76409 -21.58788,14.55917 -3.25027,0.70244 -6.01228,1.34099 -6.13781,1.419 -0.69803,0.43383 3.63158,22.51871 4.41465,22.51871 0.29955,0 3.59596,-2.02852 7.32537,-4.50783 z m 382.34932,0.25783 c 1.46629,-2.34445 7.08662,-43.76002 8.25432,-60.82502 1.25158,-18.29097 -2.24745,-22.47679 -23.73642,-28.3955 -6.80845,-1.87525 -18.454,-5.51694 -25.879,-8.09265 -18.28359,-6.34252 -18.97378,-6.4098 -23.4418,-2.28539 -4.87995,4.50467 -5.90142,9.92234 -2.31399,12.27292 1.40202,0.91863 3.2324,1.32998 4.22434,0.94933 1.58154,-0.60689 1.59513,-0.75855 0.14091,-1.57237 -3.12357,-1.74804 -1.25276,-6.80132 2.51796,-6.80132 2.07875,0 5.87258,4.55973 5.87258,7.05813 0,0.98363 -1.15213,3.15764 -2.56028,4.83114 -4.46109,5.3017 -11.78794,5.07509 -16.97803,-0.52511 -4.3537,-4.69772 -2.76425,-15.30543 3.23126,-21.5649 l 2.58685,-2.70074 -5.3899,-2.41022 c -2.96445,-1.32561 -9.73487,-4.50809 -15.04538,-7.07216 -10.02725,-4.84145 -23.78958,-8.55576 -31.84452,-8.5945 l -4.5,-0.0216 v 7.08203 c 0,6.73467 -0.16018,7.22515 -3.26578,10 -3.98282,3.55865 -8.81494,3.88888 -12.10147,0.82702 -3.39107,-3.15926 -2.40206,-5.40521 2.39012,-5.42777 5.10037,-0.024 6.47713,-0.949 6.47713,-4.35174 0,-5.62629 -7.21919,-9.60126 -12.62445,-6.95117 -3.93882,1.93112 -6.52584,5.9754 -7.10412,11.10586 -0.42328,3.75536 0.0977,5.77334 3.10424,12.02422 4.08351,8.48996 9.04111,13.44454 18.25903,18.24789 3.22592,1.68098 13.4028,7.00071 22.6153,11.82161 9.2125,4.8209 16.75,8.29832 16.75,7.72759 0,-2.52269 -3.47368,-7.95413 -6.06666,-9.48585 -5.91644,-3.49492 -7.27631,-6.87977 -7.7515,-19.29416 -0.49174,-12.84666 -0.58881,-12.72013 7.13717,-9.30257 8.80023,3.89276 13.54651,12.9557 12.30719,23.50037 -0.5911,5.0294 -0.31982,6.13043 3.26938,13.26899 3.6938,7.3466 4.87895,8.62616 21.06781,22.7461 9.43461,8.22887 17.52352,15.0936 17.97536,15.25496 1.24707,0.44535 1.8314,-5.43964 0.74379,-7.49092 -0.52562,-0.99135 -1.7192,-2.70246 -2.65239,-3.80246 -5.36032,-6.31845 -6.64192,-20.96652 -2.67759,-30.6035 2.26501,-5.50607 10.97701,-17.8965 12.58344,-17.8965 1.51105,0 2.86089,2.44095 7.18902,13 3.65366,8.9136 4.30545,11.5576 4.31407,17.5 0.009,6.34768 -0.3959,7.76601 -4.34708,15.22 -3.80233,7.17318 -4.27404,8.74017 -3.70406,12.30462 1.38966,8.6905 5.57194,14.80872 16.39981,23.99116 8.38646,7.11202 12.29258,8.38095 14.57334,4.73422 z m -56.84251,-3.81587 c 12.12201,-1.68601 12.08177,-1.6521 8.33944,-7.02892 -3.90574,-5.61158 -7.82691,-7.94222 -14.52676,-8.63431 -4.6195,-0.47719 -5.87349,-0.13981 -11.80112,3.17511 -10.70789,5.9882 -20.30282,6.12693 -28.92146,0.41818 -4.77041,-3.15978 -7.60869,-7.17641 -7.60869,-10.76753 0,-2.44388 4.54665,-3.99517 14.03389,-4.78826 5.80005,-0.48486 7.41057,-0.18125 14.33943,2.70324 7.28772,3.03388 8.08155,3.1664 11.96611,1.9975 2.28831,-0.68857 4.5703,-1.33389 5.07108,-1.43404 1.01139,-0.20228 -13.15587,-10.82399 -26.77621,-20.0751 l -8.83375,-6 -9.20913,-0.34002 c -10.57004,-0.39026 -16.79689,0.95458 -20.20637,4.36406 -2.97887,2.97887 -3.21674,7.96048 -0.45079,9.44078 2.76189,1.47812 2.87673,1.38591 2.71319,-2.1786 -0.10841,-2.3628 0.32865,-3.31143 1.65059,-3.58257 2.62995,-0.53943 4.70196,1.62813 4.70196,4.91879 0,6.72882 -8.13305,9.16082 -14.03308,4.19627 -2.93347,-2.46835 -3.15009,-3.06064 -2.72757,-7.45785 0.80571,-8.38523 7.06657,-14.2099 16.70416,-15.54039 5.82048,-0.80353 6.85195,-1.28904 4.97632,-2.34237 -3.4558,-1.94072 -17.37717,-5.9781 -20.61322,-5.9781 -4.35772,0 -6.68656,1.2641 -12.19833,6.62126 -11.07593,10.76527 -23.68428,11.08067 -34.98068,0.87505 -2.27018,-2.05097 -4.1276,-4.46627 -4.1276,-5.36733 0,-1.08501 3.29277,-3.22228 9.75,-6.32852 13.3844,-6.43854 13.74279,-6.48647 20.78872,-2.78009 4.92558,2.591 6.66726,3.02587 10.07324,2.51511 2.26489,-0.33964 4.9596,-1.23293 5.98824,-1.98509 1.72224,-1.25933 1.39658,-1.57823 -4.11498,-4.0296 -3.29187,-1.46413 -10.71022,-4.49708 -16.48522,-6.73989 -5.775,-2.24282 -15,-5.88584 -20.5,-8.09561 -7.55921,-3.03711 -11.98278,-4.17256 -18.12355,-4.65199 -14.23406,-1.11131 -26.1947,-8.8307 -31.96888,-20.63269 -2.17574,-4.44705 -2.54068,-6.12094 -1.79663,-8.24062 0.9319,-2.65481 0.95706,-2.66059 12.91139,-2.96757 18.41662,-0.47293 23.40995,1.68912 28.49144,12.33643 3.17953,6.6621 6.44698,9.63957 15.77346,14.37362 4.45772,2.2627 16.3814,6.26223 16.9561,5.68754 0.18104,-0.18105 0.43715,-4.77536 0.56912,-10.20959 0.24247,-9.98438 1.96334,-15.51289 6.40202,-20.56741 2.17549,-2.47731 1.04073,-3.4396 -6.98404,-5.92252 -12.22717,-3.78318 -33.49942,-14.47745 -35.76177,-17.97863 -0.29224,-0.45226 -3.19991,-2.04401 -6.46149,-3.53721 -9.01557,-4.12746 -16.32161,-3.72726 -25.85765,1.41642 -9.49213,5.11999 -12.84416,6.16417 -20.32028,6.32995 -7.87524,0.17462 -15.28346,-2.44834 -20.91455,-7.40503 -4.7215,-4.15603 -6.16862,-7.10263 -4.48469,-9.13165 0.60238,-0.72582 5.25206,-2.84173 10.33262,-4.70201 8.30752,-3.04186 10.29434,-3.38233 19.73738,-3.38233 8.97477,0 11.11157,0.32684 14.71016,2.25 4.18333,2.23566 10.16407,2.79035 15.09829,1.40032 2.17246,-0.61201 2.02518,-0.86584 -2.5,-4.30867 -9.38818,-7.14269 -27.77938,-16.84165 -31.93518,-16.84165 -0.74801,0 -10.07155,4.34897 -20.71898,9.66437 -14.08041,7.02923 -19.87638,10.44623 -21.25662,12.53182 -1.04372,1.5771 -4.1922,3.99769 -6.99663,5.37908 -4.13918,2.03887 -6.58616,2.51215 -13,2.51436 -8.15328,0.003 -21.82829,-2.17755 -25.29551,-4.03315 -3.5801,-1.91602 -3.57401,-4.7914 0.0166,-7.81268 8.52576,-7.17401 18.41063,-14.32466 22.67251,-16.40115 5.85048,-2.85049 14.13419,-2.98775 19.20541,-0.31822 4.50392,2.37089 15.25589,2.50535 19.5,0.24385 3.57853,-1.90684 7.5,-5.46608 7.5,-6.80724 0,-1.26814 -42.57061,-1.23503 -54.69605,0.0425 -8.48625,0.89414 -9.87393,1.36933 -17.97847,6.15631 -10.38218,6.13229 -17.18749,12.21888 -20.37073,18.21933 -2.07618,3.91363 -2.17583,4.67284 -0.98934,7.53728 0.96007,2.31782 1.87203,3.10334 3.34866,2.88439 2.42818,-0.36 3.53428,-2.80085 1.26921,-2.80085 -2.65818,0 -1.87055,-3.7111 0.93719,-4.41579 6.18704,-1.55285 8.87835,5.10783 4.02493,9.96124 -4.39679,4.3968 -11.6883,2.58178 -13.66278,-3.40097 -0.64636,-1.95847 -1.14055,-4.77923 -1.09821,-6.26836 0.15456,-5.43609 6.38605,-14.44132 14.43066,-20.85396 4.59149,-3.66005 5.10092,-5.02797 1.86821,-5.01658 -4.29211,0.0151 -9.60957,2.55677 -14.73791,7.04446 -6.37706,5.58042 -11.12257,7.2761 -18.98273,6.78294 l -5.30725,-0.33298 -1.07527,5 c -1.47253,6.84726 -4.6409,28.58131 -6.19562,42.5 -1.3349,11.95076 -1.86161,83.25627 -0.62413,84.49375 0.35786,0.35786 3.28066,-1.10904 6.49511,-3.25978 9.61948,-6.43623 16.79946,-8.00457 28.22357,-6.16493 3.6415,0.58639 8.6459,0.75083 11.1209,0.36541 l 4.5,-0.70076 -7.3125,-2.33495 c -10.26814,-3.27872 -19.37467,-7.9649 -23.25218,-11.96547 -2.81114,-2.90036 -3.36965,-4.28977 -3.73067,-9.28075 -0.37181,-5.14023 -0.13891,-6.13585 1.87395,-8.01112 5.18031,-4.8262 14.9214,-1.29302 14.9214,5.41213 0,2.80079 -0.44525,3.52012 -2.49776,4.03526 -1.37377,0.3448 -3.17377,0.3675 -4,0.0504 -1.65992,-0.63693 -2.0932,-4.63919 -0.50224,-4.63919 0.55,0 1,-0.45 1,-1 0,-1.39259 -3.34686,-1.25314 -4.8,0.2 -2.04085,2.04085 -1.33484,5.57683 1.83414,9.1861 5.58569,6.36175 21.4025,11.23892 37.96586,11.7069 14.16537,0.40023 14.49064,0.0257 8.145,-9.37812 -4.69203,-6.95328 -5.40689,-7.58221 -9.36245,-8.23691 -10.76833,-1.78232 -18.73587,-6.61341 -23.72211,-14.38379 -3.07437,-4.79098 -8.06044,-22.07482 -8.06044,-27.94089 v -2.93659 l 8.25,1.86598 c 4.5375,1.02628 10.07415,1.87753 12.30366,1.89165 5.22006,0.0331 13.58377,4.19991 16.70905,8.32455 4.63913,6.12259 5.09547,7.78054 4.89681,17.79093 -0.18956,9.55136 -0.17642,9.60737 3.2774,13.97196 1.90725,2.41018 5.17668,5.65893 7.2654,7.21944 l 3.79768,2.83729 0.29587,-5.98791 c 0.16272,-3.29334 -0.39978,-8.67246 -1.25,-11.95359 -1.83693,-7.08894 -1.96567,-12.40804 -0.40191,-16.606 1.24765,-3.34938 9.09066,-10.571 11.48058,-10.571 2.50025,0 5.78625,8.79733 5.83328,15.61695 0.0401,5.81302 -0.16515,6.34188 -4.13064,10.64393 -5.96827,6.4748 -7.11908,15.52705 -2.58986,20.37165 1.62141,1.73431 3.17066,1.85967 19.33034,1.56413 l 17.56766,-0.3213 -0.39669,-3.18768 c -0.21819,-1.75322 -1.32667,-6.11268 -2.46331,-9.68768 -1.7502,-5.50484 -3.08386,-7.49516 -8.71093,-13 -9.34188,-9.13895 -11.4075,-13.94032 -10.8664,-25.25802 0.34422,-7.19959 0.79609,-9.1805 2.47781,-10.86222 l 2.05681,-2.05682 4.02023,2.05097 c 2.21113,1.12803 6.30434,4.61367 9.09602,7.74587 5.80961,6.51824 7.26233,11.77652 5.29043,19.14923 -1.41812,5.3022 -0.73456,8.28172 3.37957,14.73099 1.75429,2.75 4.6818,7.40876 6.50559,10.3528 2.9815,4.81287 13.16331,13.29278 14.43441,12.02168 0.23579,-0.23579 -0.0231,-2.43933 -0.5752,-4.89675 -2.0317,-9.04244 1.00253,-18.10864 7.3572,-21.98313 4.51929,-2.75545 12.58165,-2.70866 16.14426,0.0937 6.08108,4.78337 7.20734,11.47309 2.6918,15.98862 -3.38313,3.38313 -6.84964,3.73746 -10.18018,1.04055 -2.02983,-1.64366 -2.17764,-2.20555 -1.16486,-4.42836 0.76578,-1.68069 2.11286,-2.65513 3.96404,-2.86747 l 2.80408,-0.32164 -2.74271,-1.86024 c -8.69922,-5.9002 -14.71772,9.168 -7.46162,18.68124 2.38618,3.12844 3.35382,3.54206 11.90085,5.08702 18.10296,3.27231 42.78453,13.1831 59.47727,23.88288 3.84722,2.46601 11.79179,8.04523 17.65462,12.39828 5.86282,4.35304 14.0759,9.82526 18.25128,12.16048 18.89815,10.56941 44.5442,15.19929 66.9389,12.08447 z m 380.61993,-32.6712 c 8.75021,-3.87064 17.81654,-14.86443 17.85171,-21.64691 0.038,-7.3239 6.10027,-16.02814 13.62746,-19.56635 5.0196,-2.35947 25.4925,-8.03278 29.0253,-8.04329 3.3744,-0.01 3.487,2.40727 0.4522,9.7118 -9.7956,23.57767 -13.3171,27.07624 -29.0444,28.85558 -5.79212,0.65531 -6.66973,1.10482 -12.25779,6.27837 -3.31045,3.0649 -5.57959,5.71901 -5.04253,5.89803 1.85621,0.61873 24.77682,-3.8245 32.51792,-6.3037 9.7878,-3.13469 17.8939,-6.70571 19.3738,-8.53477 1.9921,-2.46223 5.3578,-16.3256 5.3578,-22.06893 0,-3.04131 -0.9,-8.14555 -2,-11.34276 -2.4199,-7.03357 -2.5125,-11.40447 -0.3933,-18.5685 1.337,-4.51995 2.8421,-6.62169 8.9679,-12.52327 4.0487,-3.90048 9.1965,-8.3636 11.4396,-9.91805 5.6717,-3.93049 6.5138,-2.73474 8.4285,11.96828 3.0831,23.67511 1.6643,29.87653 -8.3647,36.56083 -6.405,4.26885 -8.1829,7.41825 -8.8451,15.66827 -0.5772,7.1905 -0.293,7.38743 6.0569,4.19736 14.269,-7.16834 23.8772,-14.33178 26.734,-19.93151 3.14,-6.15494 2.6323,-10.40109 -1.8527,-15.49634 -7.0771,-8.04009 -7.9929,-21.17359 -1.9558,-28.04947 4.4314,-5.04709 6.5572,-4.3413 10.5347,3.49756 3.6336,7.16121 4.0373,11.54829 1.8266,19.85242 -1.4041,5.27464 -0.9135,10.29678 1.0705,10.95813 2.6618,0.88725 11.0718,-15.67048 14.30008,-28.15405 4.6595,-18.01853 0.4416,-31.80638 -11.49828,-37.5864 -5.2798,-2.5559 -9.558,-2.16082 -13.1508,1.21444 -2.951,2.77234 -3.0288,7.64891 -0.1708,10.71656 2.1494,2.30714 2.796,2.3414 10.1285,0.53666 5.2244,-1.2859 7.6638,3.63751 3.7442,7.55708 -3.5857,3.58566 -13.195,2.31496 -17.1172,-2.26352 -5.7122,-6.66781 -6.2453,-15.61827 -1.2471,-20.93565 10.7543,-11.44094 30.56868,-5.58671 39.49068,11.66764 1.8555,3.58827 3.5986,6.52233 3.8736,6.52013 1.2019,-0.01 4.999,-8.14293 4.9892,-10.68672 -0.03,-7.82449 -4.8337,-17.73714 -9.7194,-20.05746 -5.6174,-2.66782 -7.5212,-6.82643 -7.4797,-16.33847 0.04,-9.07965 1.172,-11.50227 4.5649,-9.7667 3.1615,1.61719 9.5992,7.95951 11.2274,11.06109 1.6343,3.11312 1.8888,9.39041 0.4176,10.29966 -1.7026,1.05225 -1.1136,4.68308 2.1089,13 1.7048,4.4 3.2718,8.18159 3.4822,8.40354 0.2105,0.22195 1.0606,-1.219 1.8892,-3.20211 1.1752,-2.81278 1.3674,-5.87918 0.8739,-13.94468 -0.5522,-9.02605 -0.3792,-10.9117 1.3623,-14.84869 2.5987,-5.87495 7.1373,-10.96408 13.3111,-14.92579 2.7348,-1.75492 4.9724,-3.31632 4.9724,-3.46979 0,-1.60197 -9.8035,-33.67813 -12.9932,-42.51248 -2.2836,-6.325 -4.3969,-12.2875 -4.6961,-13.25 -0.6639,-2.1358 -1.8994,-2.26422 -2.6621,-0.2767 -0.3109,0.81032 -6.1985,5.93901 -13.0834,11.39709 -13.7275,10.88251 -13.5828,10.47572 -5.0318,14.14785 4.6786,2.00918 4.8541,2.21543 3.0255,3.5573 -1.118,0.82038 -4.2493,1.42446 -7.384,1.42446 -8.98538,0 -13.03228,1.74837 -19.42488,8.39207 -3.1625,3.28669 -5.75,6.36073 -5.75,6.83119 0,0.47046 3.4501,-0.96231 7.6669,-3.18394 8.7818,-4.62672 13.27308,-5.0815 23.87758,-2.41775 7.3143,1.8373 8.3235,3.76393 3.825,7.30246 -5.5636,4.37628 -10.5449,4.51728 -21.52508,0.60929 l -4.6556,-1.65698 -5.3444,2.99763 c -8.1378,4.56442 -19.4066,7.10839 -34.6321,7.81831 l -13.2877,0.61957 2.6992,2.81734 c 1.4845,1.54954 4.989,3.56002 7.7877,4.46772 11.568,3.75188 15.0522,7.40708 18.0569,18.94315 2.3744,9.11573 2.1506,10.47058 -1.7184,10.40407 -4.215,-0.0725 -11.0204,-2.86182 -15.2858,-6.26525 -3.282,-2.61876 -5.6278,-6.55968 -6.9517,-11.67888 -1.7408,-6.73102 -2.9341,-8.11508 -12.3829,-14.36323 -15.861,-10.48827 -31.8858,-16.75931 -46.282,-18.11165 -3.49118,-0.32795 -8.07657,-0.81722 -10.18978,-1.08726 -2.1132,-0.27004 -3.6882,-0.0954 -3.5,0.38817 0.45818,1.17716 9.83876,8.69072 17.7035,14.17998 5.77908,4.03359 7.06988,4.50082 14.10328,5.10525 18.4561,1.58608 25.5993,9.31305 36.6272,39.62074 1.8476,5.07759 3.0971,9.91509 2.7767,10.75 -0.9495,2.47439 -4.5972,1.79427 -18.6754,-3.482 -7.3376,-2.75 -13.7749,-5 -14.3051,-5 -0.5303,0 -1.7305,3.7125 -2.6671,8.25 -3.4188,16.56172 -11.3667,26.89409 -24.37722,31.69054 -16.47527,6.07378 -24.89324,17.46989 -23.05086,31.20585 0.9484,7.07084 0.56111,7.34032 14.70719,-10.23339 12.67447,-15.74552 15.75782,-18.68406 23.74899,-22.63349 6.4813,-3.20325 8.5358,-3.71849 16.0905,-4.03533 6.9104,-0.28983 9.3678,0.002 12.1605,1.4463 1.925,0.99524 3.5,2.38143 3.5,3.08043 0,1.57475 -6.7255,11.18098 -11.732,16.75704 -4.5899,5.11214 -11.1955,7.47205 -20.9149,7.47205 -12.80592,0 -18.28734,4.44023 -24.93789,20.20095 -4.92352,11.66796 -11.68285,22.26545 -18.34204,28.75726 -2.51524,2.45201 -4.57316,4.87498 -4.57316,5.38437 0,1.59161 13.28149,0.0688 18.13852,-2.07965 z m -39.33362,-6.853 c 14.8085,-7.37938 22.60364,-27.76508 16.11097,-42.13307 -3.51563,-7.77994 -9.69817,-17.90532 -12.86916,-21.0763 -2.94638,-2.94639 -6.27439,-3.89374 -20.04671,-5.70651 -6.82538,-0.89839 -12.38683,-4.75453 -17.31337,-12.00458 -4.00711,-5.897 -3.63833,-7.48947 1.73441,-7.48947 2.43158,0 8.26458,-0.91284 12.96224,-2.02853 12.04518,-2.86072 17.55747,-0.99501 21.75339,7.36274 2.93943,5.85501 12.23856,20.66215 12.97741,20.66414 1.00406,0.003 1.88592,-8.63925 1.88592,-18.48137 0,-6.79099 -0.54857,-10.75234 -2.09249,-15.11043 -5.60109,-15.81043 -1.30441,-28.09872 14.14235,-40.4464 9.25781,-7.40043 10.26268,-6.91293 12.5244,6.07612 2.98069,17.11806 0.80257,27.70981 -7.6801,37.34663 -6.78477,7.70791 -9.47687,17.10933 -7.26387,25.3671 0.79659,2.97249 1.62048,2.84673 5.886,-0.89844 4.53706,-3.9836 6.47779,-7.72799 6.50567,-12.5519 0.054,-9.33905 6.22991,-16.15735 19.37191,-21.38681 8.31842,-3.31005 15.60612,-7.36326 15.60612,-8.67964 0,-0.40793 -2.5875,-4.24237 -5.75,-8.52096 -3.16249,-4.2786 -6.80118,-10.35169 -8.08596,-13.49576 -4.50489,-11.02416 -5.11812,-12.15991 -8.71549,-16.14177 -9.8049,-10.85285 -30.78249,-13.26816 -41.342,-4.76004 -5.12332,4.12802 -8.36551,10.09622 -13.16483,24.23374 -2.1443,6.3165 -5.01477,13.84369 -6.37883,16.72708 -3.31041,6.99763 -10.74239,14.45458 -17.5298,17.58868 -5.04453,2.32933 -6.41603,2.51705 -15.53308,2.12605 -22.27127,-0.95514 -35.60912,-0.3666 -45.48488,2.00702 -16.54585,3.97676 -29.30092,10.29125 -46.51512,23.02761 -12.02841,8.89953 -17.06999,13.50483 -15.70662,14.34744 1.45334,0.89822 14.19479,-1.78154 21.65792,-4.55504 4.12663,-1.53357 7.64455,-3.86483 11.47397,-7.60357 7.01438,-6.84829 11.73186,-9.57876 20.93526,-12.1173 4.04829,-1.11663 9.89829,-3.49525 13,-5.28582 4.87447,-2.81397 6.58902,-3.25932 12.63947,-3.28308 5.88145,-0.0231 7.75475,0.41618 11.72332,2.74903 2.59782,1.52708 5.52282,3.91768 6.5,5.31245 0.97717,1.39476 2.78918,3.81029 4.02668,5.36784 1.2375,1.55754 2.25,3.28058 2.25,3.82897 0,0.54838 -1.9125,1.7747 -4.25,2.72514 -6.36411,2.5877 -15.39587,2.14984 -23.0077,-1.11539 -10.82257,-4.64254 -19.80319,-4.06848 -27.18455,1.7377 -3.69453,2.90612 -3.17949,3.63293 2.20758,3.1153 7.21675,-0.69344 21.06871,1.3235 37.16397,5.41134 13.83192,3.513 14.78311,3.62506 21.29326,2.5087 16.1128,-2.76304 19.61109,-1.5586 31.89464,10.98107 10.80436,11.02965 13.65452,15.48275 11.37697,17.77538 -1.1972,1.20513 -3.6206,1.25556 -15.70491,0.32677 -18.18902,-1.39799 -20.9677,-2.38614 -26.20836,-9.32023 -4.05053,-5.35938 -9.5586,-8.98392 -16.0078,-10.53379 l -2.92691,-0.70339 2.19328,3.08017 c 7.84662,11.01957 8.26109,24.48558 1.00788,32.74653 -2.12165,2.41643 -2.6352,3.57807 -1.69545,3.83505 0.74146,0.20275 6.5231,1.62008 12.8481,3.14962 6.325,1.52954 14.425,3.57685 18,4.54959 9.97359,2.71375 18.50964,2.49165 24.8049,-0.64541 z M 1059.558,571.21604 c 0.9334,-9.10901 1.7854,-37.65056 1.1544,-38.67159 -0.3561,-0.57604 -2.1341,-0.0739 -4.3265,1.22182 -3.2423,1.91627 -5.1753,2.19977 -14.9988,2.19977 h -11.2768 l -5.7232,4.55745 c -3.1478,2.5066 -11.3482,8.54371 -18.2232,13.41581 -18.21258,12.90672 -20.93468,14.94892 -20.96908,15.73143 -0.048,1.09125 6.875,2.27477 12.9691,2.21718 3.32008,-0.0314 8.64368,-1.15221 13.43158,-2.82792 14.9889,-5.24588 24.2795,-4.54684 38.0875,2.86573 4.3895,2.35641 8.286,4.34197 8.6589,4.41235 0.373,0.0704 0.9202,-2.23453 1.2161,-5.12203 z m 15.9599,-31.23012 c 0.7813,-2.03597 -1.8014,-4.94592 -3.7321,-4.20504 -2.5683,0.98554 -3.2008,3.78869 -1.1872,5.26108 1.959,1.43247 4.1444,0.96334 4.9193,-1.05604 z m -944.85397,-1.51988 c 0,-1.83273 -0.60174,-2.58545 -2.25447,-2.82014 -2.45711,-0.34891 -3.85266,1.79561 -2.85699,4.39028 0.3614,0.9418 1.50471,1.44202 2.85699,1.25 1.65273,-0.23469 2.25447,-0.98741 2.25447,-2.82014 z M 1022.977,527.21677 c 2.3722,-1.61351 4.6855,-3.905 5.1407,-5.09219 3.1705,-8.26892 4.8496,-11.15167 8.3244,-14.29089 4.7031,-4.24899 12.5907,-8.07548 18.4604,-8.9557 l 4.2523,-0.63768 -0.5769,-5.63713 c -0.7148,-6.98371 -4.2701,-31.40403 -5.2585,-36.11834 l -0.7298,-3.4812 -3.6897,6.07387 c -2.0293,3.34062 -6.6507,8.95716 -10.2697,12.4812 -11.2974,11.00088 -16.4408,20.98415 -25.4854,49.46751 -2.1895,6.89514 -3.9809,13.0076 -3.9809,13.58324 0,1.08518 6.328,-2.30151 13.8131,-7.39269 z M 550.71147,510.71604 c -1.05457,-4.33314 -5.24702,-10.04324 -8.67573,-11.81629 -1.7252,-0.89214 -6.10487,-2.04241 -9.7326,-2.55616 -10.7082,-1.51646 -14.30319,-2.98765 -19.1902,-7.85324 -4.71684,-4.69617 -6.22399,-8.31551 -7.85274,-18.85793 -0.61385,-3.97325 -0.50476,-5.45613 0.4277,-5.81395 1.63533,-0.62754 20.66683,5.25934 26.56605,8.21748 5.46155,2.73867 10.45921,8.15682 13.16411,14.27168 2.00016,4.5217 6.23368,9.06962 8.49587,9.12681 1.7547,0.0444 1.7177,-0.145 -2.84226,-14.54519 -3.98763,-12.59282 -4.23278,-13.04876 -9.58907,-17.83418 -3.02324,-2.70103 -6.69423,-6.75103 -8.15774,-9 -2.54035,-3.90374 -2.66093,-4.68722 -2.66093,-17.28968 0,-15.36242 0.39039,-16.24798 6.37266,-14.45565 5.4691,1.63859 13.5003,9.17533 16.66071,15.63497 2.18488,4.46575 2.69165,7.05835 2.97162,15.20261 0.35768,10.40502 4.00679,26.33923 6.19668,27.05848 0.66502,0.21843 2.55843,-2.29303 4.23975,-5.6237 2.84279,-5.63156 3.02266,-6.64823 2.79832,-15.81723 -0.22144,-9.05094 -0.0361,-10.14229 2.42815,-14.29883 4.20308,-7.08945 9.91734,-12.06762 14.56801,-12.6914 5.63904,-0.75636 7.2641,1.78866 7.2641,11.37639 0,10.41853 -2.72837,17.13239 -8.98744,22.11594 -6.41505,5.10774 -9.53549,8.9203 -11.99269,14.65272 -3.53165,8.23899 -2.03489,22.08241 3.08997,28.57891 l 1.94648,2.46744 5.28712,-5.70864 c 13.28972,-14.34921 20.77031,-40.48833 17.74341,-62.00005 -2.63642,-18.73662 -9.05587,-30.95153 -22.62003,-43.04131 -6.12448,-5.45877 -8.20862,-6.75 -10.895,-6.75 -5.96698,0 -9.57182,1.12612 -9.57182,2.99014 0,2.63829 -3.933,7.08392 -7.63578,8.63104 -6.45855,2.69855 -24.48833,0.76835 -25.14411,-2.69184 -0.39788,-2.09933 7.01884,-11.29587 11.18755,-13.87227 4.2278,-2.61292 8.44753,-2.60515 14.56572,0.0268 4.43562,1.90816 5.24843,1.96971 9.63811,0.72989 l 4.79396,-1.354 -7.45272,-6.1337 c -9.93583,-8.17733 -14.90111,-13.55793 -19.46047,-21.08824 -5.52204,-9.12027 -6.56385,-14.22114 -7.50337,-36.73784 -1.17465,-28.15146 -3.57562,-35.60192 -14.0969,-43.74402 -8.32195,-6.44011 -9.06201,-8.53562 -10.4205,-29.50598 l -0.7288,-11.25 h 2.43288 c 6.035,0 21.18161,13.27534 25.34548,22.2142 2.2487,4.82744 2.40764,6.07572 1.83287,14.39512 -0.58028,8.39912 -0.42801,9.5491 1.95305,14.75 1.42031,3.10238 2.76811,5.64068 2.99511,5.64068 0.51011,0 8.6971,-13.93536 11.6544,-19.83738 3.09327,-6.17336 5.26619,-18.43339 4.54833,-25.66262 -2.00305,-20.17176 -7.29178,-28.45807 -23.23261,-36.40053 -11.88336,-5.92083 -19.14291,-5.46852 -22.85478,1.42401 -1.67089,3.10266 -1.6749,3.43461 -0.0711,5.88237 2.24541,3.42692 3.65365,3.28405 3.65365,-0.37067 0,-3.88283 2.8293,-5.54347 5.84539,-3.43092 1.53307,1.0738 2.15461,2.55597 2.15461,5.13799 0,5.10015 -3.17068,8.25775 -8.29196,8.25775 -3.26816,0 -4.62919,-0.68585 -7.94904,-4.00571 -3.9106,-3.9106 -3.9945,-4.14097 -3.53331,-9.70222 0.42931,-5.17699 0.8543,-6.03541 4.65996,-9.41264 4.51067,-4.00287 4.48175,-4.15428 -1.08435,-5.67762 -9.37756,-2.56647 -17.55148,2.8859 -20.82999,13.89451 -1.60267,5.38148 -2.86354,7.47139 -6.56733,10.88542 -6.9865,6.43994 -16.01507,10.13144 -25.29924,10.34408 l -7.60471,0.1742 0.1759,-2.65971 c 0.27796,-4.2028 6.96459,-16.96366 11.7634,-22.44943 4.57653,-5.23166 7.81433,-6.98288 18.48477,-9.99781 12.56458,-3.55011 15.52054,-9.3615 7.82593,-15.3857 -2.3375,-1.83005 -6.8148,-6.11553 -9.94955,-9.52328 -4.32625,-4.703 -6.76796,-6.49503 -10.13373,-7.43739 -5.11446,-1.43196 -6.86894,-0.81228 -12.85706,4.54113 -4.69558,4.19787 -9.15218,5.00628 -19.24085,3.49023 -15.14198,-2.27543 -15.69287,-3.13364 -6.99036,-10.89006 6.27021,-5.58854 12.08405,-7.74218 18.35514,-6.79935 10.23234,1.53839 11.6554,1.6153 13.02665,0.70395 3.03995,-2.02037 -4.94567,-7.97323 -13.46024,-10.03388 -7.1754,-1.73655 -13.61516,-5.54534 -16.49892,-9.75828 -1.43726,-2.09972 -3.59807,-8.14343 -5.08608,-14.22557 -2.44451,-9.99178 -2.72026,-10.55943 -5.00108,-10.29519 -8.42684,0.97628 -75.93688,38.95422 -75.90534,42.70075 0.005,0.56077 1.78504,6.05055 3.95626,12.1995 2.17122,6.14895 4.24689,13.43549 4.6126,16.1923 0.93507,7.04893 -1.71404,13.79595 -8.42896,21.46773 -5.34111,6.10222 -9.08414,12.59863 -9.12652,15.84 -0.0193,1.47992 0.72199,1.37765 6.22624,-0.85892 12.83496,-5.21531 16.17576,-7.46204 25.7518,-17.31838 10.65734,-10.96928 14.95138,-13.58703 24.14577,-14.71979 6.28397,-0.77419 6.38129,-0.83407 8.80124,-5.41534 3.46257,-6.55507 4.69037,-7.08241 14.61491,-6.27713 4.64094,0.37656 8.43808,1.00054 8.43808,1.38662 0,0.38609 -1.12603,1.21503 -2.5023,1.84209 -1.37626,0.62707 -3.42666,2.6118 -4.55644,4.41052 -1.74678,2.78104 -1.9627,4.27145 -1.44305,9.96056 0.34072,3.73007 0.14025,8.43878 -0.45308,10.64224 -1.12024,4.16023 -6.43997,9.76905 -11.98539,12.6367 -3.77722,1.95327 -3.84419,3.41462 -0.30974,6.75818 2.06807,1.95638 4.23785,2.76633 8.75,3.26627 22.86207,2.53306 39.69925,13.16292 48.40732,30.5611 2.25097,4.49731 4.09268,8.79982 4.09268,9.56114 0,2.38445 1.45846,1.53194 4.786,-2.79758 2.1504,-2.79792 3.214,-5.29306 3.214,-7.53984 0,-4.35294 3.21261,-10.58861 6.72736,-13.05778 1.52495,-1.07131 5.02264,-2.93141 7.77264,-4.13356 2.75,-1.20216 6.62699,-3.77077 8.61552,-5.70802 3.23246,-3.1491 3.69384,-3.32929 4.3547,-1.70065 1.11846,2.75636 1.88777,18.59986 1.10559,22.76922 -0.92126,4.91074 -6.75937,11.25548 -11.54163,12.54321 -2.06267,0.55541 -5.87999,0.71794 -8.48293,0.36117 -4.35926,-0.5975 -4.93012,-0.42002 -7.23608,2.24968 -5.36528,6.21161 -5.66068,7.60375 -5.91986,27.89835 -0.16785,13.1429 -0.70681,20.69548 -1.74835,24.5 -0.82814,3.025 -1.13226,5.88272 -0.67583,6.3505 0.45643,0.46777 4.13714,-0.88223 8.17937,-3 6.6748,-3.49702 7.85441,-4.60261 12.8495,-12.04328 3.025,-4.50603 6.53367,-8.66853 7.79705,-9.25 1.26338,-0.58147 8.36538,-1.05722 15.78223,-1.05722 13.05489,0 13.51162,0.0715 14.31409,2.24078 1.02739,2.77731 0.0837,6.1922 -3.56533,12.90178 -3.90141,7.17363 -7.37344,10.35204 -14.08615,12.89497 -5.30731,2.01053 -6.42306,2.09305 -14.74189,1.09035 l -9,-1.0848 -7.75,3.63616 c -4.2625,1.99988 -7.75,4.21729 -7.75,4.92756 0,0.71028 1.48672,2.4254 3.30383,3.81137 6.12791,4.67399 9.78807,5.58183 22.50433,5.58183 11.24953,0 12.19454,0.16098 18.01269,3.06834 6.76262,3.37932 11.91624,8.71351 15.23035,15.76397 3.62651,7.71507 3.90601,8.84395 2.6238,10.59747 -1.10615,1.51275 -2.25655,1.51564 -15.18591,0.0382 -16.12421,-1.84259 -17.04261,-2.32486 -26.49943,-13.9152 -5.42767,-6.65218 -9.09548,-9.32449 -15.98966,-11.64983 -1.925,-0.64928 -4.76341,-2.06714 -6.30758,-3.1508 -1.54416,-1.08365 -2.91051,-1.80869 -3.03632,-1.61119 -5.65409,8.87566 -10.26469,15.3339 -20.60279,28.85909 -14.13635,18.49439 -28.71294,39.56673 -31.32471,45.28393 -2.24642,4.91744 -2.19062,10.44616 0.14406,14.27471 1.80203,2.95505 21.18186,21.59756 23.15568,22.27469 1.30352,0.44718 1.24489,-8.75109 -0.08,-12.55169 -0.58101,-1.66666 -3.00775,-4.42156 -5.42241,-6.15563 -8.20105,-5.88956 -10.01944,-11.97778 -7.51759,-25.17 1.79156,-9.44687 5.86676,-11.44971 10.59271,-5.20601 1.56114,2.0625 3.67773,4.65 4.70355,5.75 4.27659,4.58586 4.97759,7.3887 4.26746,17.06286 -0.69147,9.41995 0.0688,19.43714 1.47524,19.43714 0.4343,0 1.79199,-3.0375 3.01708,-6.75 2.62663,-7.9597 8.94768,-22.99611 15.35465,-36.52538 l 4.5833,-9.67832 -1.68029,-4.19947 c -0.92416,-2.3097 -3.17469,-6.68115 -5.00117,-9.71432 -5.99016,-9.94765 -4.30943,-18.331 4.97537,-24.81678 3.54732,-2.47794 3.90582,-2.54224 5.46749,-0.98057 2.51869,2.51868 2.95395,14.49711 0.73766,20.30038 -1.64487,4.30703 -1.64309,4.72381 0.0361,8.44751 0.97146,2.15432 1.9319,3.91695 2.1343,3.91695 0.20239,0 2.04655,-1.04459 4.09812,-2.32131 15.55234,-9.67841 33.62729,-10.25207 41.46711,-1.31608 2.66998,3.04329 5.71526,9.71179 5.74106,12.57167 0.0624,6.92359 -7.72736,15.06567 -14.41389,15.06567 -8.70993,0 -13.60101,-10.03675 -7.55672,-15.50676 3.79729,-3.4365 9.83544,0.32614 7.22676,4.5033 -1.09021,1.7457 -1.00197,2.00346 0.68587,2.00346 1.06537,0 2.64419,-0.70714 3.50847,-1.57143 4.53014,-4.53014 -1.31937,-13.68981 -9.52871,-14.92088 -14.41241,-2.16127 -27.4354,10.53099 -38.92124,37.93283 -3.85095,9.18725 -6.1373,19.88938 -6.71744,31.44354 -0.49087,9.77628 -0.31719,11.85647 1.22978,14.729 3.54457,6.58188 8.1554,5.66856 12.10945,-2.39864 2.97361,-6.06689 3.39362,-10.96772 1.91068,-22.29439 -1.01997,-7.79057 2.29271,-14.63628 11.04405,-22.82273 6.54054,-6.11836 10.72623,-8.21593 12.61859,-6.32357 0.63812,0.63812 0.89106,6.08449 0.66767,14.37678 -0.41346,15.34779 -0.78073,16.24498 -9.3591,22.86314 -6.52894,5.03705 -8.74386,10.41415 -8.28238,20.10701 l 0.30008,6.30301 6,3.39454 c 19.78092,11.1912 47.90245,19.76504 65.85841,20.07927 l 5.85841,0.10252 z m 111.96042,-11.88415 c 8.04036,-4.24266 29.77326,-17.61168 31.49204,-19.37238 1.67707,-1.71796 9.43844,-6.00095 15,-8.27751 7.54244,-3.08741 16.01345,-5.24083 24.48242,-6.22368 8.21566,-0.95344 15.95463,-4.03454 18.88695,-7.51941 2.62273,-3.11693 3.75159,-7.2839 5.78597,-21.35767 l 1.2843,-8.8848 -3.43205,-2.8652 c -3.23155,-2.69782 -3.97012,-2.8652 -12.64309,-2.8652 -8.35469,0 -9.48599,-0.23135 -12.16832,-2.48838 -3.47935,-2.92768 -6.19618,-8.20603 -6.19618,-12.03815 v -2.72427 l 8.25,0.44954 c 10.41291,0.56741 14.08138,2.38794 17.02903,8.45091 1.56913,3.22751 3.2081,4.97635 5.58437,5.95871 l 3.36339,1.39045 -0.38966,-10.2494 c -0.34145,-8.98135 -0.78499,-11.09091 -3.58501,-17.05102 -6.45346,-13.73683 -18.47252,-22.3083 -32.75212,-23.35738 -8.30594,-0.61022 -10.9046,0.8863 -11.31149,6.51406 -0.18951,2.62112 0.27348,5.20108 1.18228,6.58807 1.76469,2.69327 6.95352,3.98884 9.82362,2.45281 1.70136,-0.91053 1.92943,-1.72002 1.40632,-4.99137 -0.58523,-3.65984 -0.46853,-3.90458 1.86177,-3.90458 2.74968,0 5.5375,4.14226 5.5375,8.22783 0,11.34594 -20.20988,11.12175 -26.03109,-0.28876 -6.36918,-12.48464 3.47697,-25.22488 18.28943,-23.66525 13.24352,1.39443 28.32181,9.5386 36.62601,19.78265 2.42699,2.99394 4.72803,5.57091 5.11342,5.72661 1.24662,0.50362 1.96005,-15.34781 0.87284,-19.39349 -0.57489,-2.13928 -2.06608,-5.68959 -3.31376,-7.88959 -3.13299,-5.52433 -3.673,-9.37346 -2.1337,-15.20868 1.71494,-6.50104 5.64845,-13.11432 11.81041,-19.85649 7.51154,-8.21882 7.52041,-8.2118 12.84083,10.1767 1.60908,5.56134 2.92561,12.21676 2.92561,14.78984 0,5.05023 -2.4755,10.91236 -5.92588,14.03284 -5.88159,5.31922 -6.94305,10.84617 -10.09541,52.56579 -1.63637,21.65647 -3.97687,42.86497 -5.03862,45.65757 -1.27142,3.3441 -1.27216,3.34243 1.48299,3.34243 3.31542,0 8.35308,-5.2899 9.16642,-9.6254 0.36604,-1.95117 0.27919,-6.09616 -0.193,-9.21109 -1.56233,-10.30622 -1.10444,-21.24154 1.0746,-25.66351 2.45401,-4.97996 9.71651,-12.27215 15.20312,-15.26526 3.70888,-2.02331 4.31418,-2.10348 5.66706,-0.75061 1.90256,1.90257 3.13871,10.49356 3.09588,21.51587 -0.0401,10.3164 -2.47153,15.78981 -10.43936,23.5 -2.97916,2.88283 -6.6483,7.9172 -8.6652,11.88938 l -3.49813,6.88938 4.57639,-0.51582 c 6.33883,-0.71448 10.58091,-4.29155 16.50466,-13.91733 10.80246,-17.55341 13.59926,-31.89245 12.90418,-66.15903 -0.41421,-20.41978 -1.24406,-23.37784 -8.23319,-29.3478 -1.96436,-1.67792 -4.52927,-5.21582 -5.69981,-7.86201 -2.29673,-5.19213 -2.28895,-7.68233 0.0899,-28.77227 2.34691,-20.80711 4.13719,-21.78533 16.06535,-8.77824 18.87794,20.58549 20.50489,26.68103 11.08568,41.53359 -2.68434,4.23276 -3.12741,5.86062 -3.12623,11.48593 10e-4,5.85021 2.37498,22.7639 3.32865,23.71758 0.69194,0.69194 6.40791,-11.11544 8.7929,-18.16336 4.56859,-13.5007 2.40491,-40.09765 -4.79553,-58.94881 -9.07184,-23.75054 -25.86812,-42.55119 -38.01477,-42.55119 -5.48025,0 -9.11535,1.71779 -10.88765,5.14503 -4.54672,8.79239 3.39945,18.88461 13.575,17.24125 4.57486,-0.73884 6,-2.02188 6,-5.40174 0,-3.42256 -2.73463,-4.86314 -3.18769,-1.67925 -0.49237,3.46008 -4.98537,2.98742 -6.26788,-0.65938 -0.88833,-2.52596 -0.67115,-3.14016 1.88907,-5.34237 3.75626,-3.23099 8.01776,-2.54516 11.8165,1.90171 5.4303,6.35681 2.22923,14.07285 -6.98333,16.833 -6.77755,2.0306 -12.39393,0.59359 -20.46516,-5.23623 -1.41972,-1.02545 -2.04445,-0.82792 -3.80627,1.20346 -1.85453,2.1383 -2.02643,3.18978 -1.43076,8.75199 1.17264,10.95 -3.39185,18.52887 -12.00069,19.92589 -1.90037,0.30839 -4.60465,0.27222 -6.0095,-0.0804 -3.06656,-0.76966 -3.3194,-3.62936 -1.09353,-12.36808 0.80341,-3.15419 1.73417,-7.06077 2.06834,-8.68127 0.69426,-3.36673 6.75254,-9.55363 9.35501,-9.55363 2.84071,0 7.42429,-5.45295 6.64568,-7.90615 -0.58496,-1.84303 -1.44542,-2.09383 -7.1837,-2.09383 -5.65019,0 -7.0766,0.40034 -10.70144,3.00351 -5.70579,4.09759 -9.90063,5.1717 -15.39167,3.94113 -5.90546,-1.32344 -9.62265,-3.32785 -12.16468,-6.55952 -4.11464,-5.23091 -2.73972,-7.52444 6.85029,-11.42713 9.58228,-3.89953 13.09256,-3.82654 18.92743,0.39355 5.20584,3.76515 10.00545,5.64846 14.39505,5.64846 2.32006,0 4.07468,-1.21415 8.08996,-5.59801 6.39302,-6.97987 9.11173,-8.40199 16.06229,-8.40199 6.51222,0 12.54467,2.20578 23.60008,8.6294 4.41468,2.56511 8.264,4.42654 8.55403,4.1365 1.19339,-1.19339 0.88241,-15.54884 -0.38694,-17.86168 -1.33296,-2.42875 -6.51103,-6.22588 -15.03048,-11.022 -8.49541,-4.7826 -10.75755,-12.73627 -7.14797,-25.13222 1.30348,-4.47638 3.01018,-4.74079 7.66815,-1.18799 5.15128,3.92908 8.32981,11.08369 8.32981,18.74976 0,6.95727 1.17689,8.86831 6.19477,10.05911 2.46249,0.58438 2.91966,0.19175 5.30386,-4.55509 8.25042,-16.42621 20.75543,-24.5102 34.67811,-22.418 8.17288,1.22816 15.82326,8.40594 15.82326,14.8458 0,6.96838 -6.7596,12.54613 -13.02638,10.74885 -3.94664,-1.13189 -4.93771,-2.43959 -4.95831,-6.54244 -0.0181,-3.6036 1.5408,-5.45 4.60136,-5.45 2.57861,0 3.49436,1.75865 2.21302,4.25 -0.7155,1.39115 -0.47834,1.75 1.15657,1.75 1.22957,0 2.51998,-1.01696 3.20886,-2.52889 0.96627,-2.12073 0.8262,-2.96809 -0.86784,-5.25 -3.06247,-4.12524 -6.14098,-5.347 -12.48685,-4.95562 -10.55645,0.65106 -17.61893,7.78388 -20.28533,20.48738 -3.4472,16.42342 -2.96446,31.67179 1.54813,48.90034 2.06294,7.87608 5.49973,17.02481 7.06172,18.79828 1.40481,1.595 8.76058,-6.46121 9.95729,-10.90545 0.93143,-3.45906 0.71533,-5.09939 -1.58426,-12.02572 -2.36828,-7.13325 -2.54203,-8.55814 -1.5709,-12.88301 0.60054,-2.67447 2.54113,-6.94947 4.31241,-9.5 1.77128,-2.55052 5.02051,-7.75879 7.22051,-11.57393 2.2,-3.81513 4.56969,-7.11753 5.26597,-7.33865 0.69629,-0.22113 2.61062,1.03741 4.25408,2.79673 6.64363,7.11203 7.84126,22.97032 2.50836,33.21404 -7.81192,15.00556 -10.35946,20.26679 -9.99153,20.63472 0.22317,0.22317 2.51062,-0.18356 5.08323,-0.90385 5.3726,-1.50423 25.11698,-15.76055 27.19278,-19.63435 5.9413,-11.08773 9.0119,-33.26541 5.7781,-41.73294 -2.5576,-6.69708 -10.508,-9.58671 -12.1492,-4.41575 -0.6782,2.13695 0.5463,4.11655 1.2784,2.06667 0.6068,-1.69879 2.7651,-1.57512 4.2757,0.24499 1.8011,2.17025 -1.2102,6.50501 -4.5189,6.50501 -6.27539,0 -8.93835,-9.62955 -4.0224,-14.54545 4.7303,-4.73039 14.5677,-2.44516 19.5411,4.53945 4.1737,5.86138 4.9006,26.55046 1.3683,38.94173 l -0.6944,2.43572 2.9152,-2.08213 c 7.7413,-5.52911 11.9651,-10.19229 13.6845,-15.10813 2.3277,-6.65459 8.075,-11.58944 16.5442,-14.20531 3.5185,-1.08673 7.9248,-1.97588 9.7918,-1.97588 1.8671,0 3.3947,-0.44848 3.3947,-0.99663 0,-3.22695 -40.0208,-44.66423 -57.5,-59.53505 -33.73031,-28.69691 -77.02472,-55.86881 -114.99999,-72.17486 -4.4,-1.8893 -8.49568,-3.65073 -9.10151,-3.91428 -0.66183,-0.28792 -3.02307,5.02921 -5.91554,13.32081 -5.86732,16.81937 -8.4309,19.90633 -18.88026,22.73484 -5.28082,1.42945 -8.35962,3.13023 -14.40923,7.9599 -4.2314,3.37812 -10.0035,7.87373 -12.82688,9.99023 -12.93099,9.69354 -19.68589,25.24827 -19.80911,45.61504 -0.0561,9.27753 2.35457,21 4.31859,21 0.45111,0 1.67603,-1.89647 2.72207,-4.21437 1.88693,-4.18125 2.03343,-6.63656 1.29993,-21.78563 -0.24988,-5.16086 0.13427,-7.35567 1.86459,-10.65327 3.78367,-7.21084 13.24376,-13.52528 15.32937,-10.23208 1.25378,1.97972 1.11245,15.18768 -0.21909,20.47571 -0.71249,2.82956 -2.74107,6.27115 -5.51487,9.35629 -2.41329,2.68416 -5.05611,6.47978 -5.87293,8.4347 -1.63937,3.92357 -1.99363,11.18635 -0.58801,12.05507 1.30986,0.80954 25.73693,-20.86067 27.82737,-24.68676 1.42975,-2.61682 1.73421,-5.29443 1.56343,-13.74966 -0.18635,-9.22591 0.0563,-10.97396 2,-14.40598 1.21664,-2.14829 3.39359,-4.78186 4.83766,-5.85236 2.84637,-2.11005 13.64083,-5.00406 15.16083,-4.06465 1.4415,0.8909 0.3006,11.37875 -1.6883,15.51982 -0.97654,2.03326 -4.13996,5.482 -7.02982,7.66386 -8.85776,6.68767 -10.01412,13.64999 -1.88079,11.32402 4.54943,-1.30105 24.64954,-6.83666 32.10188,-8.84093 3.93753,-1.05897 5.58497,-2.07128 6.4459,-3.96082 1.61642,-3.54765 0.25177,-5.2692 -7.03102,-8.86989 -7.09936,-3.51 -11.4436,-7.39033 -13.77549,-12.30443 -1.35237,-2.84989 -1.53548,-5.14218 -0.97901,-12.25561 0.64811,-8.28478 0.56236,-8.86383 -1.61273,-10.89023 -1.26348,-1.17711 -3.31869,-2.39657 -4.56713,-2.70991 -2.97394,-0.74641 -2.92265,-2.35289 0.0751,-2.35289 1.28976,0 3.1595,-0.9 4.15499,-2 1.25714,-1.38912 3.07997,-2 5.9679,-2 4.72637,0 7.85863,2.62531 11.33445,9.5 1.11232,2.2 3.52433,5.39709 5.36002,7.10463 4.61121,4.28931 22.66775,17.7412 26.41046,19.67544 1.69006,0.87343 3.65766,2.29273 4.37245,3.15399 1.12191,1.35182 0.94994,1.56594 -1.25774,1.56594 -1.40654,0 -3.71164,-0.43886 -5.12244,-0.97525 -5.24034,-1.99237 -1.91707,2.3294 7.10894,9.24487 3.39573,2.60171 6.5669,4.73038 7.04706,4.73038 0.48015,0 2.65183,-1.83827 4.82595,-4.08505 3.68806,-3.81131 4.25831,-4.05692 8.50998,-3.66533 2.50637,0.23084 9.81887,2.37482 16.25,4.7644 8.82326,3.27841 11.69297,4.77481 11.69297,6.09724 0,3.31589 -9.37929,8.17196 -19.3224,10.00405 -7.34459,1.35329 -9.87673,0.91739 -15.04511,-2.58996 -4.46863,-3.0325 -4.27209,-3.01152 -4.92224,-0.52535 -0.77651,2.96938 -6.12135,2.67981 -9.30531,-0.50415 -2.46721,-2.46721 -2.63399,-2.48944 -11.30812,-1.50682 -9.44505,1.06995 -25.01048,3.83957 -26.398,4.69711 -0.46514,0.28747 0.0899,1.17801 1.23345,1.97897 4.60913,3.22836 6.44695,10.92701 3.52944,14.78489 -1.72953,2.28698 -7.43183,2.64961 -9.86826,0.62756 -2.1206,-1.75994 -2.02942,-5.78297 0.15655,-6.90725 2.19467,-1.12876 4.25,-0.44541 4.25,1.41302 0,0.77917 0.45,1.41667 1,1.41667 0.55,0 1,-1.34085 1,-2.97968 0,-2.46451 -0.68467,-3.32897 -3.96016,-5 -5.20737,-2.6566 -6.60793,-2.56846 -15.53479,0.97767 -13.23318,5.25678 -20.92898,9.66417 -28.05933,16.06958 -12.19036,10.95097 -16.58478,15.1267 -16.26034,15.45114 0.62829,0.62829 10.39654,-1.53651 13.87094,-3.07402 1.95597,-0.86557 5.10597,-3.53616 7,-5.93465 6.88268,-8.71584 14.29985,-10.29413 32.94369,-7.01004 4.675,0.8235 8.6125,1.49788 8.75,1.49863 0.98954,0.005 -0.1829,3.01854 -2.44426,6.28169 -3.38224,4.88058 -11.85769,11.00642 -19.18654,13.86756 -4.73372,1.84802 -7.74654,2.20888 -19.1192,2.28999 -12.40015,0.0885 -13.90735,0.30433 -18.5,2.64986 -3.00478,1.53459 -6.16709,4.21295 -7.92473,6.71197 -2.79708,3.97689 -2.95826,4.8031 -3.693,18.92935 -1.13755,21.8707 -4.35299,37.34991 -10.42111,50.16737 -1.92591,4.06803 -3.27044,7.62763 -2.98785,7.91022 0.28259,0.28259 2.29255,-0.0191 4.46659,-0.67049 5.57437,-1.67012 8.05495,-5.20619 8.08206,-11.52101 0.0386,-8.98665 6.48556,-19.12315 14.46946,-22.75016 5.00116,-2.27198 7.34518,-2.32283 9.67984,-0.20999 3.84417,3.47892 1.03858,15.22729 -5.47967,22.94609 -1.44032,1.70559 -7.03046,6.05689 -12.42255,9.66955 -12.91638,8.65388 -20.45079,16.29153 -24.83198,25.17224 -3.02395,6.12956 -3.61197,8.56865 -4.47379,18.55713 -1.53926,17.84006 -4.79743,26.52429 -17.63359,47 -7.65172,12.20572 -18.32968,31.33516 -18.32968,32.83743 0,1.64098 0.55346,1.49848 5.82193,-1.499 6.54722,-3.72502 10.95856,-8.05961 13.73973,-13.50066 4.51872,-8.84037 9.85272,-10.89382 29.82132,-11.48039 l 14.88298,-0.43718 -0.61059,3.05293 c -0.89061,4.45307 -6.71864,13.06849 -11.76774,17.39593 -2.4132,2.06828 -7.15197,5.08136 -10.5306,6.69572 -5.06362,2.41949 -7.43563,2.93687 -13.5,2.9446 -6.30798,0.008 -8.09051,0.43007 -12.50097,2.95966 -2.82917,1.62265 -6.56298,4.65593 -8.29737,6.74061 -4.14937,4.98745 -9.77627,16.70033 -10.58825,22.04035 -0.56237,3.69843 -0.40668,4.25 1.19962,4.25 1.01522,0 4.09227,-1.18537 6.8379,-2.63415 z M 406.14291,479.21604 c -0.0116,-0.6875 -2.37407,-3.73206 -5.25,-6.76569 -22.6959,-23.94033 -31.96752,-43.52561 -36.20748,-76.48431 -3.04391,-23.66141 -8.41572,-33.91717 -22.80099,-43.53124 -6.05722,-4.04821 -6.40426,-4.14721 -13.22051,-3.7713 -3.88132,0.21405 -8.6132,1.17058 -10.6209,2.14697 -6.94744,3.3787 -8.95718,12.29598 -3.34729,14.85202 2.96407,1.35052 4.25617,0.45793 2.46367,-1.7019 -1.91207,-2.30391 0.2354,-6.49455 3.32809,-6.49455 5.84704,0 8.5832,10.22783 3.77725,14.11944 -9.93174,8.04224 -25.04906,-3.33573 -21.25542,-15.99778 1.31416,-4.38627 6.18666,-10.07988 10.6546,-12.4501 2.55442,-1.35511 2.68609,-1.59743 0.88649,-1.63152 -5.142,-0.0974 -13.73774,2.33899 -24.50848,6.94676 -14.48862,6.19829 -21.36326,8.0132 -30.35292,8.0132 -4.97294,0 -8.08315,0.55048 -10.5399,1.86546 -5.58475,2.98927 -17.84265,7.13454 -21.09738,7.13454 -4.87131,0 -17.0403,-3.0743 -21.94608,-5.54432 -6.00079,-3.02136 -11.18919,-7.93157 -10.75675,-10.18 0.36741,-1.91029 6.80382,-4.3275 23.76574,-8.92527 12.88705,-3.49322 18.49703,-3.0483 26.89088,2.13268 5.6091,3.46214 6.97782,3.88017 12.47925,3.81142 4.1828,-0.0523 9.08686,-1.09019 15.17915,-3.2126 14.66338,-5.10838 33.94115,-12.35412 34.77868,-13.07191 1.33326,-1.14266 -3.14077,-5.80938 -6.69363,-6.98193 -4.13373,-1.36426 -7.29418,-0.66247 -15.08505,3.34969 -5.45619,2.80984 -6.86104,3.09136 -15.5,3.10607 -8.03051,0.0137 -10.19608,-0.34573 -14,-2.32343 -7.63121,-3.96756 -13,-10.19213 -13,-15.0722 0,-2.17001 0.0623,-2.19313 16.5,-6.12276 17.99488,-4.3019 23.06844,-3.98295 32.38026,2.03556 3.68226,2.37996 8.70636,4.55519 12.61444,5.46154 9.47566,2.19755 12.23744,3.6313 19.93465,10.34889 5.62062,4.90529 20.8098,14.18857 23.21514,14.18857 1.18736,0 -0.91222,-5.73256 -4.39505,-12 -5.88124,-10.5834 -21.96691,-24.85922 -26.41873,-23.44627 -0.98995,0.3142 -4.75681,0.57127 -8.3708,0.57127 -5.20761,0 -7.45743,-0.51954 -10.8439,-2.50415 -6.61935,-3.87919 -11.64285,-12.81019 -10.04219,-17.85343 0.6281,-1.97897 1.13293,-2.03677 12.46604,-1.4274 6.49628,0.34931 12.91307,1.13704 14.25953,1.75053 1.34645,0.61348 3.40276,2.81404 4.56959,4.89011 2.67593,4.76118 12.28844,12.19526 13.80626,10.67743 0.87916,-0.87916 -7.47163,-12.34692 -12.83663,-17.62797 -6.39749,-6.29738 -14.34312,-11.18261 -22.83861,-14.04193 -5.46454,-1.83919 -8.09302,-2.11847 -16.5,-1.75317 -8.34406,0.36257 -11.45897,0.9992 -18.81053,3.84453 -9.81694,3.79953 -14.68947,7.72324 -14.68947,11.82901 0,4.37263 -2.88732,14.12446 -5.10345,17.23672 -2.93654,4.12399 -8.75508,6.75815 -18.73534,8.48184 -4.76367,0.82272 -10.99041,2.16545 -13.83722,2.98382 -2.8468,0.81838 -6.40601,1.35321 -7.90934,1.18851 -2.61505,-0.28649 -3.17377,0.56667 -12.91032,19.71377 -13.81589,27.16922 -25.88402,58.17089 -33.08311,84.98678 -3.19967,11.91845 -3.20685,11.87739 1.63513,9.35361 3.48521,-1.81659 5.06921,-2.02196 11.25,-1.45858 18.72513,1.70681 21.44826,1.81104 22.046,0.84387 0.34223,-0.55373 -0.71074,-1.55892 -2.33994,-2.23376 -3.7427,-1.55028 -10.21603,-8.52377 -13.02679,-14.03333 -6.63049,-12.99683 -1.16268,-28.773 10.5828,-30.53434 10.14708,-1.52165 19.40673,8.10796 15.26824,15.87827 -1.78782,3.35676 -3.98532,4.61769 -8.1081,4.65246 -3.05655,0.0258 -3.9848,-0.43647 -4.89702,-2.43859 -1.3248,-2.90761 0.23566,-5.52961 3.2909,-5.52961 2.73522,0 2.30052,-2.85574 -0.54335,-3.5695 -3.63599,-0.91258 -5.65702,-0.2122 -7.8424,2.71776 -4.64697,6.23023 -0.56403,17.40296 8.61514,23.57481 6.84368,4.60152 10.08976,5.25546 29.14817,5.87203 l 17,0.54998 -5,-4.65642 c -2.75,-2.56103 -6.35,-5.34631 -8,-6.18951 -6.49565,-3.31948 -7.50049,-5.02542 -7.49442,-12.72346 0.006,-7.04019 1.44942,-14.57569 2.79284,-14.57569 0.38743,0 3.96628,3.10412 7.953,6.89804 l 7.24858,6.89803 v 7.48182 7.48182 l 5.5799,4.21287 c 3.06895,2.31707 6.78145,4.5363 8.25,4.9316 4.04492,1.08882 25.48013,1.29183 27.02558,0.25595 2.45565,-1.64596 -1.30127,-5.81589 -5.9028,-6.55171 -5.30317,-0.84801 -11.58475,-6.52832 -12.98985,-11.74647 -1.19042,-4.42086 -0.26691,-28.25557 1.20547,-31.11195 1.48864,-2.88795 4.09976,-2.02601 10.60278,3.5 11.90507,10.11646 15.61751,17.2129 15.46292,29.55785 l -0.10404,8.30784 4.68502,4.52361 c 2.57676,2.48798 6.93502,5.98726 9.68502,7.77616 19.83472,12.90271 27.94978,17.58454 30.47943,17.58454 2.09113,0 2.9895,-2.69273 3.00263,-9 0.007,-3.37055 -0.75392,-5.62945 -3.03176,-9 -1.67263,-2.475 -3.75784,-6.075 -4.63381,-8 -3.86139,-8.48567 -3.29787,-21.62286 1.28556,-29.96984 3.54903,-6.46324 17.82333,-21.28747 20.0794,-20.85299 1.26132,0.24291 2.32848,2.27377 3.59121,6.83422 3.21225,11.60135 6.72757,29.74687 6.71757,34.67498 -0.0113,5.55775 -3.23465,13.23161 -7.72003,18.37903 -7.1307,8.18318 -8.95537,17.14656 -5.24587,25.76952 4.15058,9.64828 19.76258,21.45665 35.07651,26.53065 10.06826,3.33594 10.34417,3.38664 19.14916,3.51843 5.60522,0.0839 7.74418,-0.22993 7.72898,-1.134 z m 231.70407,-56 c 7.1191,-7.38051 8.92609,-13.17718 7.29349,-23.39688 -1.4366,-8.99275 -4.39673,-16.31575 -8.56246,-21.18247 -2.99473,-3.49866 -4.16158,-4.16827 -7.242,-4.15591 -5.26534,0.0211 -8.3908,1.96463 -10.01275,6.22616 -1.25797,3.30521 -1.23174,3.99964 0.23563,6.23913 2.02038,3.08349 6.06844,3.35207 7.83711,0.51997 0.68696,-1.1 2.04078,-2 3.00848,-2 2.40434,0 2.41132,6.10257 0.009,8.2671 -3.97138,3.57895 -9.27099,3.11574 -14.25,-1.24552 -2.19763,-1.92496 -2.5,-2.99605 -2.5,-8.8557 0,-7.37293 1.43158,-10.19035 7.18876,-14.14782 10.43795,-7.17501 24.51395,0.19205 33.47334,17.51917 1.83585,3.55046 3.59626,6.45704 3.91204,6.45907 0.31578,0.002 3.24078,-5.26272 6.5,-11.69945 5.45313,-10.76954 5.91163,-12.18553 5.74752,-17.75 -0.25307,-8.58039 -2.90104,-20.12088 -6.0912,-26.54685 -2.53864,-5.11362 -3.03581,-5.55018 -7.07701,-6.21434 -5.96916,-0.981 -10.31149,-3.70294 -12.47478,-7.81968 -1.49386,-2.8428 -1.7296,-4.99426 -1.31111,-11.96598 0.67235,-11.20076 2.49601,-18.82192 4.6689,-19.51157 2.4654,-0.78249 5.87521,0.81107 10.74803,5.02304 6.68276,5.77643 8.52263,10.23939 9.27102,22.48853 0.57228,9.36686 1.102,11.57918 4.90854,20.5 2.34687,5.5 4.47081,10.21828 4.71988,10.48506 1.35998,1.4567 10.29369,-14.58675 14.87596,-26.71474 1.4069,-3.72368 3.18115,-9.69532 3.94278,-13.27032 1.37382,-6.4486 1.36352,-6.53087 -1.30189,-10.40431 -4.70651,-6.83961 -7.81071,-9.59354 -10.85199,-9.62749 -5.54798,-0.0619 -8.92262,-4.89436 -7.92708,-11.35146 1.01069,-6.55249 3.6244,-13.61674 5.03852,-13.61674 1.82186,0 9.1106,7.26852 11.05047,11.01982 1.21878,2.35686 1.44788,4.46714 0.93265,8.59086 -0.55936,4.47698 -0.36168,5.82159 1.09204,7.42793 3.52254,3.89236 4.46649,2.55698 4.44525,-6.28861 -0.0258,-10.75796 -1.37499,-19.76804 -4.37435,-29.21307 -4.74092,-14.92923 -11.49198,-22.54297 -21.2918,-24.01255 -4.60149,-0.69003 -11.66467,-4.4197 -14.08656,-7.43832 -4.56124,-5.68507 -8.5419,-20.79736 -6.21626,-23.59958 2.76145,-3.32734 15.36058,-0.42748 21.17627,4.874 4.21742,3.84453 7.10834,8.55422 9.293,15.13952 1.56967,4.73153 11.73235,17.62049 12.94067,16.41218 0.27785,-0.27785 -0.20801,-2.95926 -1.07969,-5.95868 -1.09832,-3.77927 -1.73366,-11.36784 -2.0695,-24.71834 l -0.48463,-19.26484 -3.42073,-2.81966 c -4.07275,-3.35711 -11.05819,-5.14459 -20.1929,-5.16711 -11.97269,-0.0295 -20.13783,-7.33945 -20.96455,-18.76876 -0.57794,-7.98982 0.44326,-8.71641 9.41197,-6.69668 3.78338,0.85201 8.22887,2.05489 9.87887,2.67306 3.86094,1.44651 9.22799,6.46226 11.08502,10.35945 1.33003,2.79121 12.81515,11.44938 15.18768,11.44938 2.34231,0 10.8117,-22.20439 11.79944,-30.93486 1.11056,-9.81606 -3.50407,-24.25722 -9.87409,-30.90025 -7.03919,-7.34088 -15.05408,-10.2066 -21.42098,-7.65907 -4.99938,2.00035 -6.91212,5.54682 -5.20909,9.6583 1.24265,3.00001 4.65244,4.15565 3.5149,1.19126 -0.75056,-1.95591 2.02475,-5.35538 4.37211,-5.35538 2.7074,0 4.04501,2.15792 4.04501,6.52569 0,8.56988 -9.3506,12.03309 -16.31998,6.04449 -3.23241,-2.77753 -4.68113,-6.45961 -4.67628,-11.88528 0.008,-8.86736 6.76349,-14.64909 18.061,-15.45742 5.98446,-0.42819 7.57071,-0.15128 12.25104,2.13859 3.05868,1.49647 7.84438,5.2178 11.10115,8.63219 3.14858,3.30096 5.86775,6.00174 6.04259,6.00174 0.17484,0 0.63298,-1.67953 1.01808,-3.73229 0.3851,-2.05276 1.5174,-5.42374 2.51622,-7.49106 0.99883,-2.06733 2.11971,-5.96668 2.49086,-8.665231 l 0.67481,-4.90646 -11.05088,-2.59131 c -15.29194,-3.58581 -37.12998,-7.25216 -54.21891,-9.10273 -17.83808,-1.93169 -56.50125,-3.04179 -71.96136,-2.06616 l -11.57166,0.73025 0.0663,6.1625 c 0.077,7.15017 -2.3202,14.277831 -5.94818,17.686131 -2.63848,2.47873 -3.15421,6.05927 -1.49958,10.41126 0.53639,1.41081 1.46953,2.5651 2.07365,2.5651 0.60412,0 3.36389,-2.4788 6.13281,-5.50844 2.76893,-3.02965 8.92328,-8.10596 13.67635,-11.280691 18.95996,-12.664 35.53805,-17.10208 45.63154,-12.2159 10.6542,5.15761 13.57917,16.301361 6.41916,24.456161 -6.78026,7.7223 -18.39005,4.7717 -18.12342,-4.60601 0.0911,-3.20544 2.64245,-6.84512 4.79822,-6.84512 2.39167,0 4.59137,3.16687 3.95656,5.69618 -0.54856,2.18565 -0.41195,2.30559 1.47554,1.29544 5.0559,-2.70584 4.40236,-9.546831 -1.24073,-12.987421 -6.3848,-3.89281 -17.61081,-1.65433 -31.2464,6.230591 -9.06063,5.23939 -23.03382,19.26291 -26.77853,26.87497 -2.50108,5.08407 -3.57511,9.89024 -2.21016,9.89024 2.50746,0 9.12454,-4.97981 12.30025,-9.25679 4.85566,-6.5395 6.6006,-8.02275 11.81252,-10.04102 5.25885,-2.03643 11.34742,-1.28862 11.34742,1.39371 0,3.26561 -3.14333,11.34077 -5.35073,13.74592 -3.26538,3.55792 -5.44812,4.40415 -13.35757,5.17857 -6.80306,0.6661 -7.61815,1.01556 -12.90628,5.53335 -7.60551,6.49759 -8.80013,9.61564 -8.00736,20.8998 0.34596,4.92445 0.98079,9.30531 1.41073,9.73525 0.98954,0.98954 10.31783,-5.23758 13.05094,-8.71217 1.13274,-1.44005 2.77518,-5.08 3.64985,-8.08879 2.95549,-10.16651 10.60065,-16.0031 24.81146,-18.94196 9.93556,-2.05472 14.09324,-1.68948 14.5147,1.27507 0.46681,3.2835 -7.40949,17.67338 -13.05385,23.84922 -5.19175,5.6806 -8.9376,7.3958 -16.26189,7.44623 -4.55789,0.0314 -10.89001,2.67925 -14.3602,6.00494 -4.96751,4.76065 -6.10553,11.52075 -4.18071,24.83432 0.50538,3.4956 1.13222,6.56899 1.39298,6.82976 0.70725,0.70724 26.29401,-19.48403 27.89,-22.00883 0.75673,-1.19712 2.16917,-4.30128 3.13875,-6.89814 2.043,-5.47183 6.15096,-9.31948 11.41465,-10.69134 5.16818,-1.34697 26.96678,-3.35207 28.19433,-2.59341 4.89055,3.02253 -8.75422,20.35318 -20.81878,26.44256 -2.38094,1.20174 -7.92888,2.81791 -12.32876,3.59148 -4.39988,0.77358 -9.48477,2.32428 -11.29976,3.446 -7.42404,4.58832 -18.35652,19.33572 -21.09206,28.4522 -1.93304,6.44206 -3.06923,20.0736 -1.74154,20.89416 0.54074,0.3342 2.17745,-1.21649 3.63713,-3.44597 2.17868,-3.32766 2.65397,-5.20873 2.65397,-10.5037 0,-12.89097 6.89294,-19.39428 26.84485,-25.32744 9.74898,-2.89909 10.58578,-2.50434 9.84784,4.64559 -1.45987,14.14482 -13.62447,28.48395 -26.86562,31.66808 -3.79145,0.91174 -8.85226,5.45938 -10.52163,9.45474 -0.78243,1.87263 -1.26377,3.56361 -1.06965,3.75773 0.41314,0.41315 17.15418,-4.31854 30.76421,-8.6952 12.11481,-3.89582 14.14185,-5.91906 16.48586,-16.45499 2.58459,-11.61723 4.85862,-15.59907 11.05247,-19.35293 2.89545,-1.75483 6.05357,-4.06256 7.01805,-5.1283 2.2221,-2.45539 3.67359,-2.44606 5.92169,0.0381 1.47946,1.63478 1.70743,3.23121 1.32092,9.25 -0.69674,10.84954 -2.67911,14.18512 -10.88682,18.31846 -6.78457,3.41662 -11.91217,7.80531 -11.91217,10.19552 0,0.90614 2.19613,1.26022 7.81634,1.26022 18.42617,0 30.53641,5.41999 34.77465,15.56354 3.15311,7.54645 1.20134,15.20486 -5.09988,20.01104 -3.02316,2.30588 -4.20888,2.61091 -8.53369,2.19535 -6.82467,-0.65576 -9.95742,-3.60423 -9.95742,-9.37166 0,-3.40363 0.52626,-4.66707 2.63486,-6.32569 2.97653,-2.34134 5.40111,-2.63661 7.16514,-0.87258 1.66173,1.66173 1.49981,4.35733 -0.3743,6.23144 -1.38208,1.38208 -1.39162,1.64441 -0.0781,2.14844 2.15761,0.82795 5.59777,-1.3059 6.67556,-4.14068 1.99522,-5.24785 -2.59165,-11.45581 -10.41675,-14.09822 -7.32494,-2.47351 -34.75197,-2.48387 -42.60637,-0.0161 -7.8399,2.46322 -12.42346,4.91987 -12.79684,6.85871 -0.48661,2.52677 11.5831,14.391 15.51981,15.25559 4.51109,0.99075 7.6784,5.2313 10.26305,13.7407 3.39514,11.17776 3.66241,13.8231 1.39482,13.80556 -5.40137,-0.0418 -15.3233,-5.22816 -21.24204,-11.1036 -4.08401,-4.05412 -5.27826,-6.93457 -4.49624,-10.84463 0.94631,-4.73159 -0.3388,-7.64081 -4.8363,-10.94831 -5.26693,-3.87334 -11.09882,-4.19907 -15.4214,-0.86132 -4.75554,3.67203 -11.3849,10.0395 -11.3849,10.9351 0,0.46053 1.49332,0.83732 3.3185,0.83732 5.11838,0 12.92037,2.66601 17.49069,5.97674 4.61664,3.34428 7.18005,7.70796 9.72412,16.55336 2.41545,8.3982 3.97471,11.10637 10.50226,18.24068 6.18868,6.76393 7.97401,11.23637 7.95256,19.92204 -0.0234,9.46549 -5.19659,22.30718 -8.98636,22.30718 -1.9918,0 -13.30034,-14.59975 -17.00859,-21.95872 -2.05131,-4.0708 -2.1797,-5.24534 -1.4757,-13.5 1.5661,-18.36292 0.56727,-23.90296 -5.4594,-30.2806 -7.10477,-7.51852 -19.0349,-7.44106 -25.20351,0.16364 -2.5253,3.1132 -4.17946,12.61152 -3.64545,20.93248 0.3869,6.02871 1.10381,8.51407 3.8827,13.46029 4.46514,7.94763 23.02154,27.53159 39.77269,41.97511 20.81927,17.95121 25.90129,23.95705 32.20907,38.06412 1.75681,3.92903 3.49025,7.14368 3.8521,7.14368 0.36185,0 2.50266,-1.9125 4.75737,-4.25 z m -239.07865,-12.25 c 4.24563,-6.05 9.0413,-13.475 10.65704,-16.5 2.63365,-4.93075 2.88317,-6.17275 2.41083,-12 -0.92426,-11.40252 -2.05221,-13.71763 -8.13753,-16.70214 -6.35574,-3.11715 -9.17852,-7.41089 -10.11389,-15.38426 -0.6446,-5.49476 0.77678,-13.29968 2.63072,-14.44547 3.61005,-2.23114 17.4212,6.81867 20.36333,13.34315 1.44737,3.2097 1.56733,4.58971 0.67751,7.79448 -1.55976,5.6176 -1.36091,8.59987 1.04284,15.64026 1.17439,3.43969 2.28852,6.43061 2.47584,6.64648 0.85898,0.98993 3.83391,-3.00111 11.89085,-15.9523 10.33997,-16.62105 10.99341,-19.18447 6.9809,-27.38575 -3.43963,-7.03034 -5.57922,-8.55445 -12.009,-8.55445 -9.373,0 -18.49067,-6.27991 -23.63337,-16.2778 -4.27761,-8.31606 -3.20883,-26.7222 1.55166,-26.7222 0.8218,0 5.56322,2.5875 10.53648,5.75 4.97326,3.1625 11.04749,6.95378 13.49829,8.42507 4.87668,2.92762 7.73134,7.48889 9.66343,15.44054 1.41185,5.81055 5.70542,15.38439 6.89943,15.38439 2.18389,0 5.4628,-24.94892 4.65596,-35.42684 -0.69428,-9.01623 -2.36384,-11.5796 -10.03837,-15.41244 -3.49644,-1.74621 -6.09887,-2.16072 -13.56575,-2.16072 -10.84651,0 -13.75295,-1.09233 -20.09174,-7.55109 -3.6215,-3.69004 -4.21893,-4.80354 -3.33815,-6.22166 1.76892,-2.84811 6.5006,-4.61545 13.48633,-5.03732 9.02598,-0.54507 14.21654,2.36916 18.02255,10.11874 1.55118,3.15842 11.87941,8.64017 11.87941,6.30505 0,-2.12415 -5.74958,-12.91418 -8.37818,-15.72304 -3.59981,-3.84667 -10.67113,-9.41288 -14.29404,-11.25161 -9.20539,-4.67198 -21.50891,-6.74165 -33.00407,-5.55185 -5.849,0.60539 -7.1123,1.11175 -9.5331,3.8211 -1.53484,1.71778 -2.79061,4.14101 -2.79061,5.38495 0,3.13136 2.71449,6.70673 5.09189,6.70673 1.68082,0 1.8144,-0.30657 0.88789,-2.03777 -2.673,-4.99457 2.45284,-8.78334 6.6053,-4.88231 3.3513,3.14839 3.3324,9.09351 -0.0396,12.46553 -4.10158,4.10159 -13.07502,2.99006 -17.70478,-2.19307 -0.91004,-1.01881 -2.18193,-3.83213 -2.82643,-6.25182 -0.97765,-3.67051 -0.90054,-5.10975 0.4654,-8.68643 1.51029,-3.95463 7.33791,-10.38021 10.62875,-11.71934 1.04917,-0.42693 0.77641,-1.08819 -1.10839,-2.68718 -1.375,-1.16649 -3.85,-3.28793 -5.5,-4.71431 -3.89954,-3.37104 -9.71523,-4.7074 -14.13628,-3.24832 -1.85615,0.61258 -6.63483,3.44302 -10.61927,6.28985 -15.64366,11.1772 -17.17766,11.9308 -22.73109,11.16701 -2.8442,-0.39118 -5.01339,-0.29652 -5.01339,0.21877 0,0.49955 -2.7,4.11588 -6,8.03628 -3.3,3.9204 -5.99642,7.4914 -5.99205,7.93555 0.004,0.44416 3.18741,3.28256 7.07342,6.30756 3.886,3.025 10.25631,9.325 14.15625,14 3.89994,4.675 7.33412,8.5 7.63152,8.5 0.2974,0 1.11636,-2.84406 1.81991,-6.32014 1.08837,-5.3774 1.0578,-6.84998 -0.20494,-9.87213 -1.90884,-4.5685 -1.89282,-11.0853 0.0386,-15.70788 2.0441,-4.89223 7.974,-11.30245 12.67331,-13.69986 l 3.83248,-1.95519 1.07841,2.7776 c 0.59522,1.53305 0.89711,6.39931 0.67378,10.86056 -0.42738,8.53712 -2.62741,14.40442 -7.28071,19.41704 -4.56676,4.9194 -6.54341,10.24761 -6.6144,17.82962 l -0.0667,7.12555 9.7058,16.03463 c 5.3382,8.81904 10.0442,16.24376 10.45779,16.49937 1.26302,0.78059 2.0084,-8.03419 0.982,-11.61301 -2.35633,-8.21604 -0.60994,-16.01255 5.41773,-24.18676 2.385,-3.23432 17.27638,-15.6894 18.75837,-15.6894 3.27189,0 5.72123,15.45421 3.88628,24.52073 -1.65231,8.16415 -5.07629,13.79772 -13.0792,21.51954 -5.29568,5.10968 -6.93864,7.39471 -7.51117,10.44657 -0.695,3.70469 0.37332,11.40489 8.6685,62.48054 2.0398,12.55958 5.75058,26.25849 6.99261,25.81426 0.43311,-0.1549 4.26117,-5.23164 8.5068,-11.28164 z m 563.09799,6.30383 c 3.8848,-3.76532 4.3338,-7.34947 1.0476,-8.363 -1.2375,-0.38167 -4.3581,-2.22876 -6.9347,-4.10466 -5.4071,-3.93657 -6.509,-6.583 -7.1722,-17.22537 -0.5172,-8.29949 -2.2442,-11.56924 -7.5372,-14.27024 -3.6466,-1.86084 -3.7076,-1.82134 6.0373,-3.90461 7.8094,-1.66949 10.1287,-0.84048 13.6473,4.87805 l 2.9657,4.81985 18.1908,-0.10606 18.19068,-0.10606 10.0904,-10.21087 c 5.5497,-5.61597 10.7425,-10.21086 11.5395,-10.21086 2.1532,0 1.0715,-3.19836 -6.1899,-18.30083 -11.3062,-23.51513 -25.11948,-46.89688 -40.62538,-68.76641 -7.2085,-10.16692 -7.3137,-10.26223 -8.8736,-8.03819 -10.3386,14.74002 -16.3759,18.40505 -30.8184,18.70893 -10.5587,0.22216 -13.9123,1.69392 -22.7603,9.98875 l -5,4.68739 3.5,-0.59427 c 21.5041,-3.65125 49.7926,-2.92136 62.2364,1.60579 12.9395,4.70745 18.651,11.96132 17.3198,21.99659 -2.0972,15.80963 -15.8535,22.04878 -24.4679,11.09737 -3.4787,-4.4224 -2.0014,-11.86685 2.5831,-13.0175 3.2062,-0.80469 7.2882,0.36348 8.0306,2.2981 0.8843,2.30448 -1.1254,4.8749 -3.5935,4.59607 -2.66,-0.30052 -2.6888,0.90304 -0.078,3.26561 2.7473,2.48631 6.6392,1.07706 9.7779,-3.5406 1.9331,-2.844 2.2852,-4.39712 1.9097,-8.42477 -0.3801,-4.07677 -1.0786,-5.50449 -4.0049,-8.18624 -1.9494,-1.78654 -5.9449,-3.99975 -8.8787,-4.91824 -7.1523,-2.23913 -34.6222,-3.14741 -45.9989,-1.52093 -9.0509,1.29399 -28.8401,6.10303 -28.8278,7.00557 0,0.30679 4.9884,2.07543 11.0761,3.9303 10.1193,3.08329 11.751,3.31295 19.0282,2.67815 6.898,-0.60172 8.522,-0.41921 12.174,1.36817 5.7526,2.81545 11.284,8.29896 14.224,14.10064 1.3486,2.66145 2.9107,5.12242 3.4711,5.4688 0.5605,0.34638 1.019,1.71239 1.019,3.03558 0,4.03482 -2.9966,4.7711 -17.4267,4.2817 -16.8284,-0.57074 -19.6436,-2.10432 -25.8482,-14.08046 -4.5433,-8.76955 -7.707,-10.22507 -22.2251,-10.22507 -10.77661,0 -11.15799,0.0789 -18.78051,3.88423 -4.65564,2.32421 -10.41728,6.34051 -14.34567,10 l -6.56514,6.11577 -0.45976,11 c -0.69665,16.66726 -3.85447,30.73 -9.29535,41.39501 -1.20619,2.36434 -1.95784,4.53404 -1.67032,4.82156 0.28752,0.28752 2.7369,-1.10256 5.44307,-3.08907 5.16242,-3.78957 8.98921,-10.10978 11.16492,-18.43967 1.46532,-5.61011 6.79281,-11.41845 12.87175,-14.03354 5.25903,-2.26237 21.52051,-6.15429 25.71431,-6.15429 2.5011,0 2.572,0.15932 1.8928,4.25 -2.3464,14.13016 -14.56918,29.10361 -25.97009,31.81443 -7.39963,1.75942 -12.5816,4.08517 -16.2409,7.28916 -1.7925,1.56948 -3.25975,3.14448 -3.26054,3.5 -7.9e-4,0.35553 9.56171,0.42141 21.25,0.14641 21.02843,-0.49475 21.30113,-0.52919 25.98303,-3.28138 5.8777,-3.45507 6.7684,-5.09087 6.7684,-12.43037 0,-5.78585 1.3349,-9.04333 4.9541,-12.08928 2.2869,-1.92467 17.2106,-9.19897 18.8722,-9.19897 2.8073,0 -0.4139,19.66921 -4.1566,25.38132 -0.8233,1.2565 -5.2841,4.15209 -9.9129,6.43464 -9.7357,4.80078 -12.6898,7.44926 -11.1459,9.99258 1.4253,2.34808 18.1255,10.64526 25.1175,12.47914 3.2876,0.86231 10.4852,1.55653 16.724,1.61307 l 10.9524,0.0992 3.2976,-3.19617 z m 8.3389,2.19617 c 2.309,0 6.9587,-4.83753 6.9587,-7.23978 0,-1.25729 -0.7857,-1.75584 -2.75,-1.74491 -3.5336,0.0197 -4.5352,0.72087 -7.1204,4.98469 -2.533,4.17763 -2.6814,5.42572 -0.5478,4.60699 0.87,-0.33385 2.4268,-0.60699 3.4595,-0.60699 z M 249.75371,265.93107 c 9.35984,-5.78524 25.53173,-11.40597 32.93771,-11.44789 1.66513,-0.009 4.07389,-0.75006 5.3528,-1.64585 2.14034,-1.49915 2.29284,-2.19519 1.91716,-8.75 l -0.40814,-7.12129 -5.58499,-5.5 c -5.4532,-5.37021 -7.78469,-10.07878 -7.79874,-15.75 -0.003,-1.2375 -0.41679,-2.25 -0.91937,-2.25 -1.01363,0 -18.76836,18.85525 -27.30739,29 -8.18654,9.726 -19.77882,25.09112 -19.77882,26.21607 0,0.60133 3.26987,0.85091 8.33978,0.63655 7.1967,-0.30429 9.01279,-0.7686 13.25,-3.38759 z m 59.16031,-24.80973 c 4.71162,-5.11151 8.30834,-11.7336 10.63839,-19.5868 2.30612,-7.77258 2.04469,-10.23345 -1.88848,-17.77692 -4.55822,-8.74225 -4.56846,-12.83619 -0.0569,-22.73618 1.89371,-4.15547 3.20337,-7.5554 2.91036,-7.5554 -0.7224,0 -16.96419,13.14572 -24.09264,19.5 l -3.3655,3 4.55166,7.10554 c 6.08709,9.50246 6.64762,13.76357 3.1448,23.90692 -2.36364,6.84457 -2.54476,8.29029 -1.64699,13.14676 0.55478,3.00108 1.27147,5.88169 1.59263,6.40135 0.87653,1.41824 3.537,-0.33279 8.21266,-5.40527 z m 83.63768,-9.52361 2.88778,-0.63169 -3.03899,-3.25 c -3.23893,-3.46384 -5.77096,-4.04216 -8.60963,-1.96647 -1.65779,1.21221 -1.6366,1.43446 0.38145,4 2.16593,2.75353 3.19889,2.98136 8.37939,1.84816 z m 159.61223,-26.54372 c 0,-12.73577 -7.12994,-32.65125 -14.23213,-39.75344 -2.20771,-2.2077 -4.87155,-3.75195 -7.0944,-4.11267 -6.75758,-1.0966 -13.46925,-8.38395 -15.14995,-16.44939 -1.06319,-5.10212 0.0852,-7.27247 3.84809,-7.27247 6.65809,0 16.615,8.86388 16.62465,14.79966 0.005,3.26842 2.47589,7.62446 5.41744,9.55184 3.39687,2.22571 3.5881,2.14003 3.57443,-1.6015 -0.0267,-7.30651 -2.71065,-13.56757 -9.93832,-23.18374 -7.05834,-9.39087 -11.28537,-13.43998 -19.99433,-19.15276 -6.25073,-4.10026 -7.89323,-7.45446 -8.68325,-17.73237 -0.36801,-4.787681 -1.17546,-9.397351 -1.79433,-10.243701 -0.99538,-1.36127 -2.94942,-1.07341 -16.93513,2.49477 -8.69545,2.21847 -19.4848,5.16432 -23.97634,6.54634 -11.60969,3.572211 -33.66643,11.812411 -33.66643,12.577471 0,0.35445 3.8721,2.81767 8.60466,5.47382 10.61696,5.95876 13.1247,9.33443 14.54424,19.57802 1.16874,8.43378 2.70434,11.88548 6.58112,14.79297 1.52349,1.14258 3.31349,2.53231 3.97777,3.0883 2.84655,2.38246 3.29221,0.84883 3.29221,-11.3294 0,-11.78621 0.13851,-12.61747 3.08503,-18.51396 5.25883,-10.52386 13.10273,-14.21914 15.72586,-7.40848 3.67655,9.54576 2.08338,16.16456 -5.96072,24.76374 -4.8033,5.13473 -5.85017,6.87351 -5.85017,9.71669 0,4.88953 5.2802,14.86408 10.33513,19.52355 4.73641,4.36587 16.8252,11.75891 20.89997,12.78161 l 2.6144,0.65617 -2.31263,-5.69009 c -1.95623,-4.8132 -3.07225,-6.12394 -7.24179,-8.50526 -6.67427,-3.81184 -10.4951,-9.0099 -11.07743,-15.07036 -0.55271,-5.75218 2.25162,-18.04884 4.83372,-21.19523 l 1.82029,-2.2181 5.60791,5.5 c 7.49137,7.34721 12.56236,14.88891 13.19362,19.62187 0.28449,2.13297 -0.21102,6.68329 -1.10112,10.11181 -2.5448,9.80213 0.12048,16.63865 9.1623,23.50164 8.38979,6.36807 28.33788,18.60839 30.51563,18.72464 0.4125,0.022 0.75,-1.94537 0.75,-4.37199 z m 249.4349,-7.56322 c 2.08385,-0.79228 2.5651,-1.63654 2.5651,-4.5 0,-2.85808 -0.37828,-3.52475 -2,-3.52475 -1.48033,0 -2,0.66667 -2,2.56574 0,1.41116 -0.46583,3.43616 -1.03518,4.5 -1.18858,2.22087 -1.02051,2.28613 2.47008,0.95901 z m 14.50219,-1.01374 2.43709,-0.011 -2.87418,-3 c -2.67018,-2.78707 -6.82869,-3.98622 -7.80272,-2.25 -0.23142,0.4125 -0.73232,2.05033 -1.11312,3.63962 -0.68823,2.87244 -0.66973,2.88588 3.11175,2.26101 2.09225,-0.34574 4.90078,-0.63357 6.24118,-0.63962 z m -97.53859,-36.26431 c 3.24417,-2.33568 8.19417,-6.07087 11,-8.30042 l 5.1015,-4.05372 0.5,-8.56665 c 0.44747,-7.66668 0.8526,-9.07928 3.85629,-13.44628 3.89413,-5.66157 9.19512,-9.86239 18.14878,-14.38219 l 6.3752,-3.21819 -2.95847,-1.24394 c -1.62716,-0.68417 -8.91465,-3.20969 -16.19442,-5.61227 l -13.23595,-4.368331 -3.00247,3.642521 c -1.69823,2.06025 -4.93675,4.38122 -7.45535,5.34309 -4.00332,1.52887 -4.62517,2.21846 -6.15928,6.83012 -1.22998,3.6974 -1.63595,7.78194 -1.45408,14.62956 0.59562,22.42502 0.38183,28.54288 -1.14447,32.75 -1.97593,5.44651 -0.94613,5.446 6.62272,-0.003 z M 551.75655,130.79542 c 1.13225,-3.89479 1.50367,-7.92725 1.18604,-12.87661 -0.39328,-6.12825 -1.10418,-8.37526 -4.75313,-15.02384 -3.55083,-6.469791 -4.34337,-8.905631 -4.59626,-14.126381 -0.16807,-3.4697 -0.56788,-6.37874 -0.88847,-6.46454 -1.38005,-0.36933 -20.5408,2.54583 -20.5408,3.12513 0,0.35177 2.04357,2.58723 4.54127,4.96769 7.80866,7.44213 9.97096,13.727451 8.34993,24.271371 -1.26737,8.2435 0.14182,11.89643 6.87601,17.82409 6.28332,5.5308 7.80043,5.26879 9.82541,-1.69691 z m 50.90738,-64.329381 c 0,-1.83273 -0.60174,-2.58545 -2.25447,-2.82014 -1.35228,-0.19202 -2.49559,0.3082 -2.85699,1.25 -0.99567,2.59467 0.39988,4.73919 2.85699,4.39028 1.65273,-0.23469 2.25447,-0.98741 2.25447,-2.82014 z"
     id="path3812"
     inkscape:connector-curvature="0" />
</svg>
